<mxfile host="app.diagrams.net" modified="2022-04-29T17:07:13.963Z" agent="5.0 (Windows NT 10.0; Win64; x64) AppleWebKit/537.36 (KHTML, like Gecko) Chrome/100.0.4896.127 Safari/537.36" etag="MKcDAVSC2e8bF_RTKqD_" version="17.4.6" type="github">
  <diagram id="0M1foINW74pdQe1X7OI_" name="Page-1">
    <mxGraphModel dx="1038" dy="539" grid="1" gridSize="10" guides="1" tooltips="1" connect="1" arrows="1" fold="1" page="1" pageScale="1" pageWidth="850" pageHeight="1100" math="0" shadow="0">
      <root>
        <mxCell id="0" />
        <mxCell id="1" parent="0" />
        <mxCell id="oO2pOQuI8LB1V7APFztN-2" value="" style="shape=image;verticalLabelPosition=bottom;labelBackgroundColor=default;verticalAlign=top;aspect=fixed;imageAspect=0;image=data:image/png,iVBORw0KGgoAAAANSUhEUgAAAJgAAADXCAYAAADmzJiYAAAAAXNSR0IArs4c6QAAAARnQU1BAACxjwv8YQUAAAAJcEhZcwAAEnQAABJ0Ad5mH3gAAKZ5SURBVHhe7d0H2GVXVT7wC1gximLvioq9oyiiYiEoYi8gRmAiGmIgEEEEEzF0EUMQpCQo6sRAHGwRUCQ2CCr2gqJYsPeKInaP6/ea9z73P37nTjQzk8nzn/08Z+79ztln71Xetda79znfNzdbpm0OaK957euu+3a6nW77263OuOV13/5nu/l1n6fb6XZC2mmAnW4ntJ0G2Ol2QttpgJ1uJ7SdBtjpdkLbaYCdbie0nQbY6XZC2+o+2H/8x39c9+3ktlvc4habf/zHf8z3N3qjN9rc/OY33/zzP//z5j//8z/z3fXXe73Xi3y+O/8v//Iv+XyTN3mT9Pm3f/u3zb//+79vXv/1Xz/jUNF5x81udrOc+7u/+7vN7//+729e9apXbX7v935v84pXvGLzW7/1Wzn3l3/5l9v5fPb+N3iDN9j+7LPfnX/7t3/7zfu8z/tsPuADPmDznu/5npv3fu/33rzru77r5m3e5m02Z5xxRuYkl/nJXTn+5m/+Jnq+4Ru+4eZf//Vf04cervvunPvN4zgVG33W2ikHMAblTCBiZHL4rEP6nfEppq8+AOW8nx2aT+P94R/+4eaVr3xlQPTqV7968/d///ebf/qnf8rxute9LoD+27/9281rX/vanHMPs3ScOrc/azVb5wMQQHizN3uzAOSWt7xlzvl8i7d4i807v/M7B3Tv9V7vtXmXd3mXnAOsyt3DuICr+Vnz8y4oT7V2kwEYUWQrjpF9yMDhb/zGb5zrnOGcjKEBGeNzcLOLjCAjNRu5X0b64z/+480f/dEfbf7kT/4kAOMsgLj1rW+9udWtbpVPPwOE+YzXgwHJZm5z+U6WHmQGzte85jWbf/iHfwhozeNc5X3Lt3zLzTu90zsl073t277t5q3f+q0zp+9AJ9uRgw70Mk/nNR6b7HPkjdluUgBT7mpMzgMQTneN4ckl8mU4mQdYegASUP3Kr/zK5ud+7uc2v/Zrv5ZxAYaDORWIjC3LcPDbvd3bxckcX7DpU5B1rs4P+AWBTEdeQFJy/+qv/mrz13/91wHa7/7u7+aca82Mzvec9uZv/uabd3/3d9/c7na327zf+71f5CgQyWIuNjAXWYDuVGw3GYBpdaIMw5E+a9ie41gOky3+4A/+IGD6wR/8wc1P/uRPJpsABYAABg6kPL3v+77v5oM/+IPjyHd8x3eMczmt6puXoXadyAa97tPPxtxt7tktXb7r6xM4gAnw/vzP/3zzm7/5m5tf+qVfSgAo1cCpL30cQP9xH/dxm3vc4x6b93//9w/Y2YKspyq4tJsUwDQgqpM4lCwM7JAFAOr7v//7Nz//8z8fgDnHWUACTB/1UR+1udOd7rT5sA/7sGQFQDKOz5ZfY5nD2IDgvHl9d+yChgHd77NytfnZvD7bryDbPTq2wJBtcT4BIjB+4id+IiVdRpY99fUpGD71Uz91c+c73zlBQcZTsd2kAFbnFGQcVg5Cpl//9V/fXHbZZZuXvexl4VSUs2rjBA5RBpUZmUuZcV8BYTxOlk0Qf+UUN1PWOFu24eRmFjI4NICsbGSSIRF6QHjTN33TkHZzm1fGAXTnC+g299MDKGVb2a0cEchkN4sRMprvrd7qrRIkl1566eaDPuiDrhvl1Go3KYBxKGfWubIOh3OSn20rPOtZz8onwwPXbW972xi/WwIAoNEBiBBugOJEHEj2cABWOVOB5XAf5xZUBaj5m93I01LsMC/AAZfvgOFnwHuHd3iHrByBDuj1N4bxan5gAyrcTeBY9f7qr/5q5OfAb/7mb958+Id/ePqeau0mBTDzAogI50y8hIh1LDDgWgCCVwEYrqJxEoAADSf96Z/+abKCAyB/53d+J/dbNACCw/gMBCwtpQUWEDnnOhnwJHI4yFcZnTe3TKsE+tk8xjAHcJHVatFiQiA4gND1LiTMq5nLSviXf/mXN7/xG7+Rce5+97sHoKdiO6UAtjsdwx3damRA4UDZwD3Kl/7AQbaWHVmAQ/XnYET6R37kRzY/8AM/sPnFX/zFgM+YjAAsnMlRnG1fyiqOs7ttAHAFuHvM437zGN851wBK1nNOVmzZxQl9l4EEQUHpHn3pIKPJRh/90R8dvmhu89JVSa28nZdu1VczBpscbb+Dzp2MdsoAjLGMy+CmbeQyimvO+2RYh/P6U8B3TuUopafy6c+pR44c2XzP93xPshbHO/TBy25/+9tv7nCHO2QViZ9xFqByZjOHY7f1Z3Kaw1Gn9/zuNXM5+jM58Tpl2XbJT/3UT21+4Rd+ISAENPO2VAKcJwAf8REfETmtIPG3ApOd9JMdje0+33ueHD6NW4CezHZKAIzSdUgN4mBA51wv2FxnXIfmvOzT+/VFjF/60pfmUErwLOBidKCy3OcsWQGolCPZzDjmMIZPzbjItrImG9mslX383D0s9nAPmXwap0dLrkzk8F02NH4znPGA3idehcjjWEqgwJHB3ENG9wPZHe94x2Q4GZaMDnM72MFq1PwFKhmr08lsNzrATMG4XVHVuZzVeZwjKGO3HNSZDv04B4+yPYEMc5JVJRB84Ad+4OZDPuRDskn5Hu/xHnEQfta5OMR4wAKM7pf5gMmcxvAJEDIP5/nerOn+XSeSEfDJTC8AkVkBBKiBzifQWIzgYWRzji3MbS/sL/7iL5LVfHeQzbyCQgmnB95mM9Z34ym7QKUfWepgYCsQT2Y7JQAmGzAKx/iZw7Q6yTkA4NCWTs15zvjt3/7tEHW86kd/9EfjiK7OAEq0f+zHfmycybmAxREc6MCLuh3BkcoW8i/r4TjmdB8ZWzp99rvxyNJP9nEAn6PgBGA/+zQecOB5OJ9P8gGPQ6bCBwUOztYNWLoh+cor4CuXn/zJnxzOJju/27u9W3RnSzLQ05zV+2S3Gx1gmkjTanyfnMmxjGI+52UCjdNFutJ19dVXb174whcGYO5rWfiCL/iCzed8zuckcwECgLrPOJztuOaaazYvf/nLw384z1wtbQ7g4SglVHnroyMAkC0cHKyf8TvP7hx9TAUYQNFHRmTRtzoDAj2BDi/8mI/5mJRyJbAAJ4sVsNJP9p/92Z8NyJRZQQlk5513XjI2kLnHmGzlXvKdbJCdEhlMhGuc2iwGdDU6IZ33s6YMXnnllZvv/M7vzM+cpY/l/v3ud7/NJ3zCJyQDGI9zWr5kOGT/+c9/fpzdezmaMzxURvbtm9k/46SWtd1s1YAwp5851zi7cwEOPWpg3/VzmA/olHRcyyMiJV05BAZyA66+dull4E//9E8P8ARZ5zPGS17ykuyDuZ99gF7JZAcczc+aa+Sv7Cer3egA06o8YYwt8n1naJ/EcM4jILv0yG932oHgzDPPTMQDBYcAhSxmLKXuOc95TsqM7PFnf/ZnKYmcJNLdg88UULiSg4ObNWokgaBkyUA+ZSeAkEX6yYENFIcxyCPryYI2V4Ffk7nK6XwCjEzaZ5KynjmNIbPRDXhkKrIbkyyAaTHzQz/0Q9mCabCgBYDp0RjZBMA+h5+Itm++kwYwzm5maPT72aEkeL7YUqYUAqMX+D70Qz80Rvdc0c8MLjsAFYKvb7cBEHaOZXicR7bDcYCK87rfRBbOBkb8rE53DsgLppZABxC01GkA5mjQcGyJPuf7LrOYF7mng/LrHnwUrxRAdAce+3eCiixktkABsI/8yI9MlhIM7tNHAOKhMpo5bG/I6B6Sm/v/ywymdUwCMQJjMqyHvS9+8YuzQw8gyDBeZZvh4z/+43NO+XIPcAHC4cOHNz/8wz+cLAAQAMUp7gVEZdDekua6LABQshLA+F7nyiIch+cYH+gBpGWzmQqYHExWswGr7AyAQOko3yJ3V7VkQ87xO5wL6IGOLDKuYBFk9LHCJZM56SF77waMsfHSF7zgBbnHGEB4xRVXRO6T3U4ZgHFCsxaH23E/cuTI5md+5mdiJNFuh/sLv/ALYzClhgNFvcZ5shSHfNmXfVkAokwqfV/8xV+cMtE9I6AS8ebEg3AzzlBGzd0M2kwk8wAwY/nezGO8rvgArmUZiIwNkD4B14oUYMkHrO0DEPrRxdiA8omf+Il5QG98WccBUCgBmoDg427GFVAy2ed+7udmNSmIlGQ6XX755fn8pE/6pM1XfdVXbQHGBvQ7qNXlzXR+3v3e1nPHaicUYPoRxFGFGLLC+WyUuy4DKEff+I3fGDLO2RyH5F500UWJVALrx+Cc5Lpx8Bg/KxcPfvCD88mw+Io5OMl1gDX2j//4jydTleST1UFlpQUwkX0ZzyGrAJNxyVrdmrmqk/vN59DP+Z5zD/CS1dzAbSVoVShbAz796OYTqQc2wBFc7GQcY+Bp3/qt35rFjvHdY5vii77oizZf/uVfnrlVAfdYBftZxgVqctDDp3kqu7EFs74NXPf7rl+DwXdjmdexr+m71m4wwAjuIJTDcF1pNWoJX6N97/d+b6KOsUU57vBpn/ZpAQkHy1qUb3MfpzBunezAvRhABjDui170os2P/diPJatxLMM73KMsKVGcA0iykwzAAcAr6h0th+anR+dqYxPnXT9aRrpqjO3wM2DLusDmEEx9iP3TP/3T+TRvuZrM9tmf/dnJ3uSSuWRDJVNWQyVwRtlUqXzgAx+YvgILqIxjHjrzASDhpnRmA+fJ6pMudPCze5vJ6etaddV3V9eD2gkFmMErEGEJw0k9R2BCcrqtAyUR13L+Pve5T6JX5AIXRTlZaeAAwLnXve6VcYzhmk/nzWNRoOzZhJUVLRCURaUNdwFWjsB1SvQ5Abg4xRjmdI/SpBwpwWT1KZrNzUR0cxRgBZKDTEonx8sk5jVnyypnawAnqMxFXsARaMg6ws8muCegIe4WOHib83RzsB2SD6zdXPbJhsAKlIDSTP6MZzwjY9z1rndNEJOF/ZpB6SMY6Kk5twso382/r7lnrR2XDEZgrWj3cx3BqAgrTvHt3/7tMSQAWBWKQCu+OltfxlbeLMUZ4SlPeUoiUB/jMxynGEcfWcv4xnQAUB9w9xxAuReYuoUBVKIdqBwcLuMBlz6+m6uZiZ41ZEFHZuc4DbcCLpmCDPSyavW9h58dQOc+drICBho8SjnFEcnJPjZhAQ54jC0bdquigHNeeZX53ANkZCX/tddeu3nYwx4WuwLYWWedlYzXgK38vgsmR88ZA1DpuQKRbatdDmrHhYMxFCFbChmiZFh2URaf/OQnx1lWdoxx/vnnb++r80X0E57whIBGerdMv+c977n5zM/8zIBEdMpu3/Vd35UNWEZgUJmCI2RE4OJAhiKDcZRYB/BYLcqONnJtdQAaIAMJOXynh+/G0BhQ9mwJ4QhOa2AxIV170BM46eReZVw2so+H88mq9Ckw9ZcxBc6zn/3scDYAMT7A2rlHJRqMdLFN8cxnPjP66GcL5BGPeEQynz78IFs+5jGPyWKKLKrFQx7ykGR3P5OVXmyoNZjc6zv7HQtc2gkDmFsZuqWrhqWgSYHhqquuCqF3/vM///OzV2P7AZkGmPIrmctKkKEZDC+74IIL4hTXRbdXpRm1TjTOZ33WZ2UZL1MxDKOQBRA0YJXpEH4ObJkzhz4cfJvb3CaO50DlxLaC8RgeyNzj0Mji/oJJoxvwWkEKEqtJ2w6ykexqLvYoUIHBfLIJmyinmvGMBRDoBP7U+wH0S7/0S7OpSmaBo0w+6UlP2nzHd3xH7iXXAx7wgASlQPYzILnPlg5f0e25z31udN3NUO5vUPmuL/vsBtpaO2EA0zia0fV3+G5CWUKWsV+DcwCBrQVG5TgKACIDKonKJ6eIWI9A7nKXuyTSlRbXv/u7vztjMiqOI1vZI7NDr+xwHBCQwV6SPSIrNwY2h4xAVWBSSmS6PnzmMFnPGA4gJWMNVxP5rLF973nzAoG5AESGk8UdgggxtyJE0i1OBJU5Acs8KIByKMPgiuVp7OEx0bd927dFFg/2u6GqbAIAUAMkkOFc9NHHc9pP+ZRPSfmnv0B/3vOeF1n4AD0RoDIpm5GZ76qP+ehaHfe1EwqwXSNrlJYpGEXmUIKQUPWfY4GB4IwsQmUWm6wi3yMSv0UjShkTL7J5qB/Q4Bv2uhgIYeUgRmnJQn5lQn19ut89fe3FtgQHyE4c6RqQC5JyM4fvHAMgxnX96NbolgWARCAY2yEAOrZGV0DAG41tFx/QHPRW4m3POICeDXwCrD50YSM8zbz4JZt+3ud9XuYBRmXVbyhZTbMv8Ng3E9jGx90AzEFHlUGmsxenmhjXfXTl09Id54/VTijAtJYbQ4kQ2chqEbgoet/73jegAAZKiHIgsMIBMIowmg1WhJVyDPt93/d9m6c+9amZA0gY6zM+4zMSveYyJ6cxPAcyrkxBdiBSBmRBwLVRyYHukSFkwj4m8l2UK222OTjMNcBQimr03Yj2vQCz3SFwgBbofe+KFQCURNc42j0cTE4rYCTfz+S3heFe2Ye8dAY098nIAlYW1Nf4VtiylcCRddnBM1mLADrhWl/yJV8SMAERmiGTyXZKukrxoAc9KLYqwAQrHfFDfqrP9rXjAjDdimaA8LOBfecAQuBPlHvc4x4Xx1EeuKRq47mH0KIJuPACBlca8C9lUcYAPnzr8OHDKV0MpbwCH0OZz/giHNmVLTmMsxFq/W3AOhiPkfQFeIZnaP1FvbmAC0j0K2j6fde4fm5U06U24hQyNZMKOIdMxvmCx3aC8gx0MhtAKMfAwh4ylAABaGUV0Njt7LPPDpiUVOCXpWR1VYJOrrMxbgWIAoNtBTngmsdKUlUAVsGF6OOHAIqfkadgohMd2cD4PvcBSNt7fQy12mayHGO8ZRRfZuKcn+X9MhGQn0ewXB/DLhNhy0TwMoIuEzXLlVdeuYyQyxgs4/g+WWmZJfMyxl2mtCz3v//9l5e//OXLOCdzTFTn+ii2DJiWIfvLGDPXx2k5jPOUpzxlmayYMUbBZZy/TOQvA/BljLxMicucGlmHNC/D25YBYO6ZCI2cA6B8zip0mZKxTHAsw/eW4T7LrDKXAWTkH3BGbz/7PgBfJuMs48TITK8h3Ms4fJkMu5XL2HQZRy+TQZcJpGUAskyZjP0cdDOH+Z74xCcuA4ToQ8bJwMvXfM3XxAZsPEG8DOdaJtiWKcfLAG+ZbLdceumlW1/4HN6acQY8mXsCdJmgyvXJ1MuU6ujjZzKwPdv63nl2/b/v2NdWM9jcmOidCXNAqXNQ7pZGrQhxzVaEcibtyyIe+4gaGcf97kHUPfawPyPCL7zwwnAAfMvPSK1tCtlFBNu7QeZ9F8HmtPfztKc9LaVFRItumUoWtEGpRMl6ypuSocwaV/kT3biVsWyB4HGyHRkdzSrKg4zmOx3HyLEFrkUXP9PHdxmr32UB8/qUYZVaWyGyJHmVJWMqmTIrvib7WPHJImwgw8ioyqEFkpW4/so7ci+rIeaogQyvdNLNdRVASWR/mdoWBp/YZ5OJcDvbQ0ovefmSXuZ1nV701WRrHJRcvu9r+zLYLS6edt33/6eZ1I0Fh0k4WHlwvuDTgIojrdo02wuUYcAaX2oHLsoqE9K2rQhlw7hWiE9/+tND1KVyb6r6XUBAMJ8yYg5LbFsPHImTIaqAiONxBKcqm0eGA3q8YlxOJoe9MjwPj+MoZQufU8bciy8BFmPXsNXRd7r3oL+DUwBPf5/ux7dwPxxQ6bJitc1ALwDjfPuD5EL4fSqLgCFgyCKoPN5yCBSgE1DAZH5lVx9lUVkFYtcBHgBtt5ifLGzVxYX7jc8HbKI/meih7eqo0Zue+9q+66sAa9S2MXQn3QWdrIATWCprsoklsEyi4T24jjcygUem4OQpjfnuulWizVN7PxxidST7cYw5Lb+7AhLRVoRWkzgEXgbIIg94ARkQcUE8haEBCx80JuBaeNga4FDZyhz4ihWd8S0wNGBhA9eBXND5TnfOog9iDiycyxZ4KJ30ATjO7HNQQOZ0QHbNWALHnByP89ThgCazuU9G5A/6WFHKhEDUlbHvMh+QyWzkZFuAFsDA737X+EIjFxnoxY/k5Vc/k8sYMvqxwKX9nwBmEs3NJhclBCVEy6PDPo1UjTjLIo9+9KMTvYRmGAb0uEdWYTikVJo2rnEA81u+5VtCcJVK15UCAOV0kUtE7+SLRDvV3iSwu8345OJg83zDN3xDspbyxEEMbCNT2QAsDmkm4khOMYfoBk73WoWRSWYADACkv4O+7ic3IH/t135tVnXKmSBQktjBJxAAmjLDDu6RNQDbqtaWDbD1Oh26XQMwnC+T+m6PjO082gJk4yv77EVGWd646INFAxCa22YunymJ5na/+wCRXso0oAGTn+nHNgWY+a9P2wvCMdxqmwlD8sY4W9I8xggJRAqRRoQWiZySGHI8gMh9+swqMcQaGR0FQmAninJtDLtMRlqGB4UMTyQuz3zmM0Oa3T8RvQxwlzFc7h0llslYy2SXkFOyjBGWAe4ygEyfcUrI8ZS/ZQCZsSwI9J3AyGdln6y5DECyGBkj53C/ecbwy2Mf+9hlym3uO7oNMEOqx+nbhYKDHuZ3rvIYa/hh5hoARX82JAs9kf1rrrlmOeecc3DhjGGhNAGxXHXVVdfNuETXyZjL/e53vxB7/SYIYlO+YRPE3H10mQBbhgIsr371q+M/ek8wZCFDtsmiywMe8IBlQBlZBpDpRyZzOTcBvT2379jXVkl+T88ASa8iV/oUiRArUpFtEY80yxIIq7Iiamxyeq7mkGUOHTqUrQhZRCaS+TzmEI2iT9ay/yPS3Gv33pMA/ESat5xG5EWc7KKMmds45Raecd7tbndL5OInSmdlRu6VCJkGV5QpZLpmGRkTr8GVlB1yOlci7MCTZBb2MJZs4HuvyR7G9V3p9N347EEeurGPzIr/4Y6uyXbKq/s9CsO52F15V9q/8iu/cpthyOwtkgmAlGPVwuMyGV22w4dxWRnfXPgm28v27mc3fvPygeb6V3/1V4cu0JWt6m8YYL9Ws7Wmz1pbLZFKoYEJ5bt06WeTKis2SL0Mh7Ba6eFNUr7JGMw1nIrAVopKH6AAG86lbErpVnGAoQ9jKXW4lnLF4PjTRHf4k/GBUznD6ZRVpJ4jcDqGtqmodHCINM/JjGkFa1UGkOY1jvFwOGUU6fddmbcaBU46N9CAiP6cwB6AZl5zWcHRDXCUI2UcyMliPOfpTRZHgUgOgDGmcQSaT8QceHAuweYgh+AyJ+D7BHKBDswAah46uZ+MxldS2UFQduVa+sF2AlPpxEs1fc1F3+sDLk3ftbYKMMDqjSYkcCcEECtCkcaQOJGdZ9cY0paFzU/KyQp2jPEOwuMsVoLAIVNYBXKuCGcsCwbgEvkcJesBDtJqPNnH3O4HgL5KLIMyMMfLSJwCTHiN8XBA2dD1vgpjWW8l6xDhXZGZR6TLrvgM0Ns6sdXQnxFz43GuQ1CJfNkcEIxHZ6tUAETsu0IktzkEKbAJUvM6T2cLHZu0DWY604nsxgEgCwD2bLbEqzQ2cM08QAdkPgWc+3Zl6FYGPYCb7Ig9wPN1g+tYINsHMIMc2NTsUWDLW/COAV0+H/GIRyxnnHFGav0znvGM8Ar98IBrr712GdCFJ+BXk44znrHGUMusILPxOJG2XHLJJeEIOAk+d8EFF2Rz1WHTFI/SzDsRn81Vm4p4jk1Lm7QDovTRcAa8Cdd5yEMesgwBDk8y3mSlbOA+4QlP2PK4MfAyoF5e+cpXhpPhPI961KPCU8yD/+FDdB0jh2eZu9zLgWPRZYARLmhTlM4DnmXAGP0GfOEybDTAyqYs/sNOuNIAJ5uiQwOiD11xVPc/+MEPzmbrlNflrLPOCq+dYI9NjGcsvAvPHVCEO9JvAJv7p+TnXpvSNoLxtQFluOkkgcg9ZTobtzapXev4xiB35/J50LGvrQJMoyTnG8REgIbI210n9B3veMc4lGP1myXwcqc73Smkn3MBoiBFuBmCUya9L5M4s+NOmeEyAS0DceRwuWXKYO5rGx4SQHOwuYd/ZecbOdXPOFNuMi4wdSwxhBh7WlBd9EWujxw5sgw/WSayAyLAN757gcn9BZZrHOHTz8Z17PZxH/AJLqCxcJnyu3zTN31T7MSGHFu7Ovf4xz8+C6XO7fPhD3/4Mhlya7dZHSc4LrvssgQ4+et4tp9svpx55pmxLT0sKNjWHMM5s5BxDcjs8JMBeMghqOhBdjaeTJix2VW/+q/N99rbcSyArZL8uTmHNgbcpkFkG5+R9r3Mhqy6ji8ojd790hB+v5wgXeMTSKn9KQ2f8hswUjIOgKwrqXiR7QRl0dJbWh9lsnGrxCkjOJnnkkqJsjmGSbkZsISbdU8J1zj33HNTpnAOJJY+9scQYGWFXMi/cccZ4YDmJTO+omQiyrYINCXJ93FWdB7j5l6HcZQ7pVXJse3gOh3JicxbOCDVyjNKMI4MB3MP6oArIvDmVsZRA/bAkYzvCYWxlEpuI49P5ZPeD33oQzMWfdnQM0f3sjtOrA9O6MVEJdx45GR7nJisfpmGfZVKttf4nr4aG5rTObZ3vtcOaqscjGAMaRBtsldIsg1RzrC6sdFpsom87B1RQr33BqoVIYNyovvwJkCwEcvx9m8YDR9zHedieCseKzlGRISteKwo8QWPdnAtq0nOJwfHdEGBhzCulSQD43bAwonk8yaBT/fgaOZgcFyMIzmffHgjoo8jlsAjzwh4ibTvgIDT+I43IfjmA2pjWMAAEp7EufSnk+8Ajqi7bgxjGptjgcTK2B4gDmZcAWKVyJmTWbZO1vjJCtUYwI3LmlNw0MP4/GdMiYCt6WZMwAda3BLp1w/Q6M2vBdfuoZlf2z13UFsFmIkM4mafNiO//uu/PkSXETkEgRVFdodtKXgsA1SWzK6JAFnFmxHIJGfKal4UND7yDWCMiKy75j0nhmEomdK9wO4e1z0e4gTGABb32+gEQNmUXFa0vpsDQZaxRLFHTEAJMDIgAAoGoHLIjpzULKHJqgg8kJLD5qyg4aRmNH05BVhkQTYALp9AhFRzMiAANuINBDIYeQRLgcvpMot5bIOwNzuSCfE3n8zIJ1NOk1Fcl+0RdTrLpIBEzgaFxQFd+AjQnSOTMc1nXD4il8Z/dAKyAsjnbjYjg6NJ6KC2CjDGoLzGELKD10AYVYaQoQhGaK/neOhqlSLDuM5o9mS8eyT1U1BJ5VTRJZKHECeS+4xQSRBRwCzbmI9jOcvDcxmGQu6xk26/B4DNBTAdX6RzpHmVZsAyJ+cXyMoAORmaIelhLuVV5vBd+aCDOeyfyTwcbhXJ+frKJoAH4ByqXGmcTw5zWml7Nuu7pqQKKgEmqwCHDCSwZGBbNpwIKOaw2mQ/ZV8/dteM4X6yO6+xJXACMTu5JhsBu8CUqejGpwJCFjY/+wGf13iAlByqDICx+dF0yef1AZgOBzYrLERvJssq0Y7xKLlMJgnBdh5JtPs+vCUEFflH+qxEXLeimcjIKsj3cVjGtmJEWifys1KzK+4e9zomU+b1mVE8pHWMFbLpQOwf/ehHZ/U2imU1aeXmPqTUp5XWgHFLzvWxarMTTuYBRIjsGC1E2MruWc96Vl61seoyp7EdxnDQbwAQGyD7Pa+Pa5MJsiKzsh06EF2NbZ5xcuSaTJMVpdWaFWPnoOdk3qz69NHfvRY6k40zvrncwxYa2ZHyKZ/pM2DMHJpF03DcEPvJ1llkWC3zqQWBFSe/GG+CJfdow6GX4cd5QmCFO0CMzScg4h9HbUxOn67va3szmCiEVOlTpEv3MoSMIupFol1g0Yw/2RBV8zXEXWkS4VK3X0YQLfiFyHVNmbFBKhuKUNkRn0LYpXhR52clmSwykeeNFhOiVDl0v0xETpGIsyGsMq6o08ezT9lRBhH9dBPhxjael/OUW9EtY4hu0a5kyT6iG+mmW/mWMkvmsWGyFj1xSlnPPiFeiRfKMEqRvioCPWR6mUamUq7cL2t7eC4bGlvpkplxJVlENjO27OOaMdijZY29ZEk2VLJlQ/6RbcmgTNPFNRkaxfDJt3ynzOpjHvubZOJz8/D1BEIyF5vSeTeTOdbaKsAYzKRupiBBAITy0jHhbIoyIoU5siUOZ/EAW2khoHKEf7lm49PfubcYsEiwSSqFc6oS5P0lRgEuu/921xlFScTzEHQgUOaUVTvQSoe0PpEacErzZPqKr/iKPCWwaNCHToBk1QQAxtLXjjgQcDqOh8Mpx+bG/ezIW2DgJQ4E3qHcugYoFj1WZoAJ/Mbk2AKD0wSUsqk0cRrbADH9lDtBob8A0IfM+gM1hxtP6fcd4F1nawHuPufrH2PibTgo8Ao+8wkOfmTjnjcOeczF50o9wAoYoHRfAQYPQOaz5/a1VYBxuAatJtUILgJdkwE8SwQ0TgQu0eaaDMOBnI4827KQORgZADhWX8/YAAmAOQHwAIDCnOwRDlDiPwArYhnfNocxObsRaWffFgnwcbR7bamYhxNwKZzMKlgGxU9EOfABicxsNVmwyFoyL4fI3LIfXgIQDucEhuzK2bK61V6v+ZS1cD+/g+mQffzMLvQAAPIBkwB2Xj/ysjn5AB8gWjHIzflsZiHDVgAtUADN3M5ZLBjXWDIcAAM/WekERAAmgxqXDYDNnHwom+LJgoje5HUUYIAFYMds6uRBTW0dJcMHRphwKnUfN1C38R5cZNCd15HV5vIZG3vj+NTzcWpqtY0/O/UTjdmEtcFoo9E1O9c43iiQXfeHPvSheQ0ZVxpjZld/jJZrd7/73cMNxgiRx70DrIyLO4zRlyl9GdeBe9hZ90YDeSdKlwFF3v6wITlgzzgOzT2TCaIzXXCpIfbhjWTCgRxsgOsY3279gDyc1f0au7kHv7RLPuUm/G0AswyII9OAJXYzN/vYBB2ghgMOUGIv4/ODw9MBPBEXZF878WwxQZknD3jVBHTeUjG/scmP7w5AswmOn+JUePVQh5wfkEfHAWrsyib64q/6eDrjGjnJYdza/1htFWAIHVABmk9CdcBZvYW4U3Q4WB61MOyk1DymQcAH6dmRLkgpPRkiCjGC8212/IHDeIzBYOYELu+SI9AMOivUzKVR0BgI7ERmjDvlcgv2yoMAAyZ5JgNnIUKWyXTRx2Es/X0HLgsJTywe9rCHJUgsYjxFIJ8xyCqwbne72y2TuZfzzjtvmQwbJ9VGtZ2fketZTS+T6QMwcU2mc889N3PpQ+bJMtEPWBD7yTQJNtc0/QDEExQ2mUydV5oAeyhE5DP2oUOHllkRbn325Cc/OYuXyWgJUP3JJhCnCkQfiwK7+OQGdgs5583jEZNx3KMJfAe5nN/XVkukFKxJidMvey/Ko4e+dtXxJc2OvFIivSKc3qnHB3AZpBN/GCBsHvWoR6XU4Tm2MtR2rWRY6pdy/YkB5QmH8VYFvqSseKDeNzLIY0zbGBYTSoQSrETiZMqCPTTkHnFHnJ0n673vfe/MLd0bx5y4CznsuVkgeMXI3pqyivMoJwPCEOgxakoZwu48XR2IPWpAZt/1xQPZTF+l0B6f8j1OiVxKEFviPs6z4Tg135VTlELJd79yOwAKEbd9QD481vjOKc/kIgu6QT8+IDeyrhyiNXigjWDlGb3ws3JoLG8JK8dsy9/0Zxvl1nmfrsGGeWHD+OZaa3s5GOMbRGMUA03EZAWo2aTEvxhIf+CzN8W4HGnH3XdvNdgP892bC961x62sZCwUcCvOsNLEgwiPi5kL0MxhpdlVEFm6SYusAjEAMxCweRzkyYENYIC0ICAPnoEbGZ+R7GmRy+LBIkIA4CuTccNjBIN7cDKEH08jv4Nu+AxnMzxHcC5AAoWNYqTdd6DB4cgODGTCrayocSDkXRAh0wLF3F110gHH9LN7fOJSgsN9DroIIJwQaAWr8fiFfOYlH5Dhb4IEd2QL3/mNHObHt8xvTOADVvYwL87Lh3DhIIOf2XOtrQIMUoELkn03oMzgPSwbcozk2RfDAR4j2BDkKEJyKgJNWVlJxrOStNoUQaKthBvJtBiQcTgDIDkdeDjZ6z7GKtFFaGUZgOAwc/UPsslWIlX0MTiyb6VqTmMziuvdSpBxrHad5wyrQ+TZ6hHYfVpBIruukaOknpNsXbCFLOEAdsFTgNGfg5Bs4AFGJNtc5hSY9Clxd43D2JC+HA8A+iHt9DUOMu8eIDW+n4GML8wpeACE7OQpyDzrdJ0O5AZW/dhacJrf81j+Nv+11740QSPjCTIyO2DD0cSz1lYBZgLAAoQOKKsAEIVEtn0vCGYYoFOWZKXhUYlwhqCQvSZC6C9tWzGJdjvvjMQwyp8yQln9PRlgZL9AYiwrWGAXUfavyGJe75PpwymiUSYkr2tWtgDmXnqQm+Hte3lzFLAY37wA7s8bOHyvg9lANlAOBZgsICuRk3HdDzQAbAVqTwnIyKCxh4AxF4Doz6mykeAhN8cCiiDkdKWSHjKKewQDOxlTqRI4znt6IIPJWgJLMAA+GWU+cpoH+IzFBsqu/vQjpywm8PiVbZVamYq/9Xnxi6/J6lQ2ND6f8oPGxvrBymoboQ9sM8h2JaKNcUPAEUWfVjxIpMXAgCzvWSHbE2FZ7Thv59yqZ4yalaUVpb4TQdmNR3RHiawgx5G5x8pooiukHikeJ2Z+DfmczJXd71EsCwwruYnu9JsIzUrWQXY69H4EespxSOsYJvcj05dffnmum5uuVktWi1a5CP44M+R5smPuQdLJ7PwYPITakwcrL/ea01hksVJzzcLA/exjRYnwVy4LgMnWy93udrf0GXBFR/LqY6X9oAc9KIsK40ym3pJ3c1jlkYtMFibG82qSJwpT1qKvBQAbWZH6xWK2RfqnGkVWq2WrV37yew8D6NjPHBdeeGGeBrjOfuYcoOagq2NfW81gIkKmEWFSq+jypy9FDS7iHXpodl02soEqakSWciWqlT97W7KXaZQU0Wsx4PcilTt8TFaTZTR7Y0oGPuWtC2VHlCgRshoiL5N4Tdu9Im70iIwiX1+lklw+ZSCEWklF4MkvY5nfQ3kLFBE4q7Ncv+SSS7blWeTqbxyZByeSBczFPsoezsY2eB/5lF/yiH72UQplNgRduZM9lE4ZSaZkD1lJCZLJ2JL+SprMI7vIdPq7JksbS2mmIznIQ07joiEWCWwryw+Awl35Qxaih2xKFvTGNef5yBzOmxvvZDsHHizDqlZkdp2OA65c/z+VSI5yI4UAwiszNgE5xEYnRTjGgfTbxAQCwCCEXWArHemdIjY9pWklgzOtHIFHiTOW/hMhASVjIPbm4QCKWG0dOXIkIOYMu/R4BCcCgMb55JG6NYDwFoWVpjkZHZgFhxUuQFpB2cQVIMo5Y9JdMOBbynOJPd3wEAeKwJE4kflwUFwFCOgIJJxAdyBTioBOqdVPGQM2YKevAEOkgZoM7A5c7K1UmwN3Mi7Q4FYczRb64r/GVKrN5Rrn8xm7kKOrfaWQDPzLJ3iXT79xD0gAx4euAzM+2RWlYFG+2ZxfipO1tgqwDgC1JrAqU9ORdOSXYRmQErID4USirAA4VoYiiPIcg5cRjEMPz+pQ9AOR81YtMoYtDucBywoV1yADntG3MgAOX/P8kTw1Cj6hcQSQiWzgxtcY33mZ13tiSDxACABbC54CAB8H4BlA5SA3ToXcyyIA7QA8XEcWARAAwp3owV50kdXoIug4G3FmF2ABfJnPIoVcAOaa+1UN+hToxmc314wHgLKMSgFIbG4OcwI3cLAF2wEoHzivLxnIIvPJtMYptwLUrqLJZF6gJC9dXCO3vsAIVFNC09ex1lYBxrEENxDjU8CAVmyixHmRwRBIMxA67y1KRlJOOV+a9yyS84zHobYXRKxVKKVFnhJjkcDY+lMEUEQrAiqD2hvi+K/7uq/LHDKesia6ZCRGdw8yzygl8ozq+vClyChzyFpAy6CMaaHhukMAAQ1HiWC2MKYGQBwvE9BBHzqQ19jO2VMSWGRQntmPUxwejZGTcwsyTm4mA2YgAjL6CiigBhZNKTSubKYvEs/Bgt0jOHOjDfYS2agPw5VGIHMIBgsPJdX4spJP8wEjIBtTIDov48mcSriszTYqh2YO9lhtI9iBbQwU4t1jwJFHHzP5llTbKffLFSN0drvH8SGgA5gsBGbikFpEEvGeMpfHPhMVeXQzymQc74Uj9giuxyNItv6I5CiXa6NIds394ojxBtB53x0xHXCEwOpvPIQbWaWe+7zv7zrZ7LaPkbav2iC7U0ayMz1Ayv0O36ckZB6755N183jH+/HI9JTqPGnwSKnzuofdHPpb2JhnnJEFwTg0erluXHpZQLCfR2/srNHfL8eQ3W6++8hORrvvFlpsu/uu/ySAPF6awM/u/2T3yO/1nMm+edTGttXPL5MMqPOLOZ5CGJ+N/D4Emw548xhKm2yXxcSALU9CyEdnuhyr7d2mkHFErEwlgqVp6VV0qsf4hK0GWUxm8XaEVGt/STkTdUqg6HafNyVwHanXxqfIFJE4nCwlK9htlxF8F8leNJTORb9tB285yJ4ynrFEEH6kZI7hEtkyoZI++m1fVJQlRLiH5EpuM+sjH/nI6CVT0VUGsOXivFd/jKOU4oAOGUf5p6N56OkcmXAokU8mOiLQMoDsL/plAnPJIuwrU8pGMoeSjofKgmzoZ1xOppNRlGSZDyXhD9nHd6VVOazu+jtPFtnSPOzHRzK5zMYvyp1z7iGzpwyyr4ynPx+Xb7GjvrKe7xYAMrexZa99GWwVYITUDNKDUIDiwGH6jjuSyImABBhKAsMCCjLKCFI+si1dM7xdewpxEMJvZUihvhsmVeNGypgyiXe5powA9hOf+MQ4jsGsKJUKMnu0xPEMgcfZ1+IABN6Gr1QvxTtvjwyPAg5lkD7KrldclHey0tl1hqaHTw5xHjCUW5/GdTgPvADLkeSiJ+foJ2jxGjIZi8yczLFA5Twd3ceO+CPQW3RYJHR+weU8XQCJvR0WQQJIP0GvNAKqOdjRuMqcEgfcgklgATs58Vp0B6jZRjDQw88CTKAond2vYzfyrLW9HKzA6iqNIMAlexEMxwEMxB/HYQCOpRyEUx4JJYhde5HvfisUBJ+w+BiHApU/54g/mJtDgIuygAdgMp4NTs6fEpTIMS8g+S7T4IPAiVN5AsD4oh1wgJnz8UgBwZkiFfhlUQFQh5KDIUW2sRy+I/gCpDv4MlXHcHCQ+zmWY+gPmLIOXWQCNnKvTCUrsQMwAwJbs5t79ANa1wDWOcHMJ+wPSEDhvHmMBQTmcV7AF8QA7BAszUzsIvvyKzBauJFTFjQvHeirevCzBRr9cD+csfzUmGttFWAaBftJSCmWI6VQj1gABqhsQcgkjKMvwShLCYACCvtXHEBgmUNkWOUh/Qzrfr8yJRoobksCIADVu/t2lwFVJCpdjEhRAOMQTrW3JSo5X7ZTNpVgcytpyqSSrTQCBseaC8i9rCjDKGFA6YG8Q2TbkvCoyDyinw7ksb1ipUlnZVH2Mp7M62djyUZswYEyrrIvG3AKnQFBNkFB7LIDjXIo0zivHztzML2Amw/Y1L6VrAfIgk9mlKmNwVaChJ0BgVyuAZCEwBbAbgxj0QvozcmWgtjY9BOUyjf52Z8cxqYf3fdlsNXXEVsSHRqB20xuM5JiyhOD1Bj6KQMUMTFj2HMhnPOcx7Ci3spQpBDW1oT73WNrwTXgxdVcB1qRxnjAR3l7WgygZHZFqExwpr0uvETJJK/vQOF3LDlCs/rEtbyVYTzXvQKOdwkC/ehBVrIbQ5nRtwEHQFae+KUVdEuKDWZZE+DZkFwCiLzKqjKOkwE5wMrC9ORAcnE+B9KRHPTWXxCYF+8UfHSWhcjE2YAGKACpCrAZgMtwfCTgjEUnWcj2i4okc8tOKgkdZCZjAxsbuFeACRwZjhwSip/3tVWAiSg3cyyQmNCAIt2OtfQOWN48lUIpp59PQCnIlCv7ZAwg4oHLdcbqayLGkW3MoUxxAKCJYvtWjCMTeugLeMAPqEqD6LTN4SE84ym9yp8G2GTlNOWNg8nKQUoJAOAsZMYJLQg4jnzkJrMMK0PLYmQ3Dqd7gP7whz88ACKrMZ33NokMQS6B4LmqrRJN1lR2ZSFO8vfFfLIbcHkF3Fg2m2V7epLFXIBs09RYwKo/++hDThkGaGRawCO/vgCmdXEhSGQz97Ar0Liv2ynGpgu/a4AkwwGY8iyBAL8szG7HaqsA41DNIBxvIiVNuqY84eymU4YAIoagBSJBgVTmkkFEIcIvvQIVIFkoAF2f+BsHV8MV7JsVvIDOIAwsKqV3nAzxBR5gkcVkPAbGrZRdK1yyWpkBMKfQR4YwD+5nLEDhXEAntwiXxaxoAcZChlMAX2mmk6yhFPo7s+ZR3jiBTB7q43kc6ryM7F46AiiwAiB52AVIlEqZzMGWdBWEAll2o5u5nWdjjmZLwKG7h/iAak5cCpDY1zV+cT+7uBfFcZ4MzvGBBRn5jUEWehRM/AV0SqXrMp37bxDARBKgKAWQDbEinnFFoi0Dy1VAtMWA8PsUMZQTeVIs5xDIPS2lnCVKpWaPXYCCUXEuDtGQajvvlDAe0DEuoCsBrjOuEovc64cvyQ6ADTzm4DxlqU6VWcsfgQmIlWGA1pfxZUOZUj+gN5ftDb/B5JUitACXo5NHUMqzjWUrO7IqU8Y1L/uQRUBxiowhw+KBsq3yxWYcx4HGBURyyNhkZjdAc7+AIhOgmEeAy+CCnw3Y15iAy2/6+5QQZCBgYzM2Mg9gCVaralnSuAAGdOzhfgBjKxnTHOY3pu/wsa+tAqyNQyggC+ENjCGilC5GYQQRagsAkdYYGVcBCADTj5PUfFEFSCJDpOE9HCXClVJGdI5zGITCSq09LOCTcXAsn4yENJsHoMkFfNI9gLhuLIsBziO7a/2VOQHC0eUcggdYLCJkMRkCl5PJHv/4x+cXjJU8j7RkPcC0UmNonBQP67JfBrBaNj+n4mTKqaB1D75GLoBgY44CDJkWD0K+yUMuiyXOp6NSyHbmAA62Qw2Ueuc0fWUsP8vgwCAYnSML0Pg0HntZEOHAQEwO88n6/MYvglpfNvfJH5XZ5762CjCG4CBAUQ5sIXB+nx82orw5oeQoZRwiKtwrSrqUJlh/L1LE229iTGUEiDhbf0STwIDC+RSUAcwjQjmIkbz/JZrcAzAczFDSvXLqHBD7LvOIRumesQCDwWRNGVLm0mToSy+9NNnLnDje4cOHw5P0ZVjO5jRZpZkIWHEuTpUVPf7icHPLzuxFb1wLJwKOLhzYiexkYzefshIHyxrA4VM1AVSck+xWg7KLOWUbjha4FhOCG+jIx5ZdaQIyn2kqiupBDv1lJ33NQ26LFLb0M5uxDV+wAb/5DhsOY+xrqwAzIaFkLUYGEsAql8EH/MFfPEE6Zmw8xn0MJ6sh2Ixi5UZoGajklZOs1AAGeHAiCokmkakPg3EqGZRI5cDDZ4ZlCA4Dbg4EOgZEyjmdvICqZJqbgwEYSDkX7xOlnMNgXrk2nkznNSAbuTIb8MuQwGbF6TmocWQS4GB0PEywkAOALApkCUCVyQCQPjI8G7gPoHxyMJvV2Zp76AoEMjR5+6zSqpPN2cX4sh29Ab/l0M8ylnMWOu6no4McPtt8J4fx2MI95HEO0DU/u86vgsCnn/kHyPa1VYARhGCQDFiWs/aFRBjjKn0AZAKlglOUPBPjahzP+FZeothYOIqsRnlchgMZhNNxDgbjDNmIEhRjNICRCQHC6z2MIqsCJlnIqKQCnVIhswGu8kYm/d0PKIyoNMkIruF+VsbGo4s5lE37QsqejCfAZDY/y77+3oXzHphbTAhEc7EBx8gwsplrQCcbA4jMITDNSSa28kmmftcEmAwtc7CL84K6ADMGe2rA5Lz7ZRugBDrzOicw2dgYfMpGvqsKxnBOIwObC3J+88kfxlDFjOs6XV3jG+cF4L62CrBGkwzgGaO9Hktsk9tewHEYyq6wpb3ySEiAQGg5lBORXQaw0kN2KaXkWCSIYk4HCvMBCQDLiBojWOorecCg1JmH0h4vOc/A+B2HMLzDWEqf8zUSZ1tckFFmkyVEoPllWyVGdmxWlW0EivnxTEYFElSAI1230pTZ/CxT2/Q1BhC4bj73oQHOk0XJImObbAi4qAMZyNrVIfsKFoCgv6xMZv1kmmYZgHKf8zKhjO2c6zK3e3wnC5sbTz+28CkjksEiTcbTV6biB3279weMVpMwUIA59rVVgBFYbVbjgUzm8F1EKUMcg6fgVgyo4R4c7xoBcRCE3GoSee72A0LJgDKGh9bKhqyFL9UwgEhZzhclCLPM47w9HhwLAEW7DKHJkIANIDJR+QIew6nKlwgEZDyFYWXhAtXCxVh0lKVkYcFhdSpLy7q2IAQHjmM8CwKBI9sAIDsp/12UyLCcwhbkIUd5I4cJVNxPZhSc7A6sbM2pPSfzsKnGbs4JJHMBGbAAZPvynYwjewGDvuYDMI1dHK0g3uS1EBEUBRh5gUn2AiTjGRdQzeNe4N3XVgFmIAIZiFM7YLcjAMIrzfZ1GMN1hrPaMiknyDhWoKJTCRItuA+AiUBAdBjfUhwYRTkFOEypYWBG4SDjNas5D6SyoQAwHrA6z0Gyl2Y8zpYpGBRQyy3IK1gYEbiNAwBAJ9MAhs1ZIHIdMGUpfyeNnmiDsudRE/04pXtZGgACPH0Eh+BxTqCRl8PIVwcCBlnoBTjsAjQ+AaQgawAaQ8DQxzmB5Jy+fjaWxjcOzXwaX+jLx+SzeGBb9/K9e2Uwn/xZgLnfp/GM0XHX2irAKiilKMEISqVoZQCOwpcIY1KvJvvTjCZleGUTYQYgf8NC2eAkKzcRCKwAIYUjtMopIJnTgV8pURRUtoDGeQ4VaTKDkg1IFOZIZZDB9O3qkGGUZwBw3sJECbExCWD0EiAATF7RLJsYxwpZAHGqn5sZOASIBJiyZTuBXOQwFi6mlAKSeQCVzWQS2bglSzsaTPqwT51Pf/Y1p7kd7KCPrGVs9/sOJO73vVnIfUBgPOd9CrTdRm7NvQWuuelgPj7lL61966ejxzq6rQKsKCUU5yG5VlkGRfqtmjQTiHibklaIlLWlISNxqrcbCMdRQIlfGIPxgVVZ1ReXazTgHXgZpyldFgkyJi4kW3CEcoTXABLD4hCch1sBuOgju1JKLqAyDy7DaTKa+QEEgJ3neGWJHGSUbS1EOItDgZWxOUEw0MUGLmfInIKFUwUMx7KbjMWW5nT4zoHm2gWDZhz3GcP4gKWvefXzM5DrX4frb8yCh9x+1s8Y+jrvUx/6ue6a+ZyrfMZ3Tl9+FSzO05e8u6193LuvrV4lqKbEcQbiDgyyhhLHkfrIAngEMKnZdoUBSTaRoWQwGdAWhhIEgAACeLiZ1RFHcgqBGUxJtbELFJxvLpFkyS4bUa679saT2u3mM55zuKGxAE5mRcIBklwMqD9+ZH6LA7IpM7idg4NlKNfMC1zA7fVsgFW+GdbcQKaPcw7yK4WucwwQkRdogdnYHC5zklEfTq6D3UfGOo6NHfrUPpoxtF7TgMrP+vluLq3XydBSJwDb3/VdwJjfd/f7pIPAatNXa/99bS/AKC+T4Cmcq8RwBj5BKMIqJzKbhkPZ8yKQVZTVJiVwJyVTlgACRBJgjY/TuG4+wgIDgOFAspMtA8aQIZQvWQ3xdh8yTwagkKUojHwDK1CQnQycoQTLeBryDlyAIdvZSgEWOip3ZPaA2TlyyUyAivjjnzImJ2jNIM1sZKiDjO/QjANErnGQw3eZgS0LMPf5mcyOjqO/n4Gk42v6OkcG5bLn9dmdy6Ev32jAU4DJhq7VB+7TfPrZ+AWYfsYyj6N919oqwCjLaYAiakW4xxsymMwimzE2PiTLyQ6HDh2KU+yRySgIs4ziEQquQVhOBCACG4dzZQHXZByPYmTFrgQBhjE8V1SKOUIGlZHcD3gyLMMpo0oaGYCuvwcJWDiWlI8LtpyTra/1cJ7Vo7nd73GO8TWgU5rJaAzlhXHpIFMzOBBwGMDQ0afM7XCd3IJDQLhf6ecsAcfBxiuQ2L5gMKefAVlfNjKWvq7pX4ezk2u+06mg2AWacZwvePUTjM6T36dz5jeWQ1/B434ydT7jur6vrQLMoIClNNi0658FVwYZynaEdxUZjMM9LFXulESrLBlCf2+VMiihCdRtDoDF1QCF0ZQXYOFgJQwokGz3cJhMJLsh4oBMDkordd5qYBBZ0gYpR5gHx1KKZEKyaQCH/wEavWQ2RnKeDO7lUPM4b2W2+xjGKzm2OBjaOStUCw7g7mMvGZLTgN15DvGzxol04uSCBsCcZxPnCyznyKK/5hp96CpgXXM/XYzVEqy/OcmrAaN73OuaiqCfOZxvBivAgMe13YxZIOlXgOnj2NdWr5pIyfPoxqoIt6KUyLc35dAAoX9cRNZQRgCBsRF35F7qJqDHQYDJUMqYrMdZAKjsAKasZ7PVuEqqvvbQlFWrmu6KM4YVGmcCh76ylPKpr2wHAECHiAOkTOuBuqzjnP6cwmgeRwG3OWxHyF7mwPlwSU4SREBDH0DSX7BxtPtkJWADOo4HdtlZXwsXDpcBcbQGHT7K8cZ3nuPoI3DZjBzO0cWhyYqyLOeaz0FWupOlJQ1A9DG2YNSPX1UHYwCOPuRzj37GMZ/DPc4bk7zNYOzl3l3wr7VVgBlMCbETj2hzKuBYrSkxwIScyyY4lIzl7VHbC5TnWCDhQErKQpwu43AGwAIhpWQJ99koJTxgItkAYfGgpDKObONZKCNRXIbiTGMAORlFoyxqD63n6UEGKzpcivMAn/zm42TZmg7GsNNf5wMw7sfRdKUb2xgL8DhBQDRTyXaChIMEEV1lLzxVZuZcenMMx7pGNqDlRKCy+jS3cwDterMrYMiu7jcfu+jrZ0EGIM7vljX2ci87kwvtMI7vAEMOdqAbm9X/gF/gtdQbk22Maa5mtrW2CjADG0B5EYV2vWUgpJ7jOdsDbodJnQcwisoMNlqVJZFU3sPxBJI97IxL1RTkRFxPX86SQZQvjrIYsKPvZ4A1r35KoJcPlVXOBVhgdh7ozGksc8m8sgKQCxJZRHYxJrBZDCibZAdGwOMgIHUPR+hvz01pMZZ5PG9kI8FEV46WVTkTkGQUzmEffYGEc41FB4sH8yiNDk7mOFVCX3J6UmF+tgAQWdKqWl8OBw7ZXx9gllU0IDBv+5EN+IGVrACjsT+Q6sMfuwCjB/kAnW2dk0WNaR596b+v7S2gBiIAB9tW8EiDUTjanwiwkjOpa7ITozGAzUxbBa65XwawjyYyZSdgcF6jOH4FLAzkpT4O0ABZeaSULKqkAr7D2w9KlIxDHkHAOfidTCjKvToDXOTgNIsPACGDFbHGkco9JwEQQAoCBpStAYlDPALSGBsvlVU5HEhRCdkK2AFJ69aLuWUCYKUH3QStACATO6AJtkRc159ewEB2Tyo0c7I9+9rP04AFwJrByLILMODQB/jIquqwkZcDZEutANNflm7p5nvnjQGMrjlfDghYzheQa20VYBWUYazG/HlJRrF7760Kq0nOwrk4gnEZleFFAsVclzHs8CsPMo0tDgYinD5AK0uJdosFXI4TcR9zUsrGrqwGFLIHQOA0+I8s5XmofocPH04GUSqUbWMxAEDKREoag8m6gKnMeVNDeVSqZF4cjxGBHpfjQH2R+2YDGc9bIZzt2aTAMD8HysaasThScFoBdxwZzH1kEgyCSDDISvQGBjrQTQYTOABffZUxdtBXk2WMDWA4HJsDqszMvoDrfvPgngAGiPppkgKb0kuWKtdiJ6B03Vx8SmZ2Oi4A0yzNvalqlUZxj4qsJvEjynouqbRxFIPKGDgD4fXnJL+xw1GU70oUeAHOu1XdOAUGj5IADe+SERmVMZBrkc+QuIxsKPPY4cexGIZB8CulhGNlVw7ieONwmnlkVhyIo8glOMjaNyzIRjfvg8kYgAXgDMphtl/oxfDKqYAT3bKR7QzngYIM7GAOQOJYpdQ18+GKSjmHARjgNdtzLPnozonAQRYNmAWQ8QSvvvTvZjQZnQMmwGJXoJHl2Ny4QEc2tiEHgAGNcQpcepiXTO4nBxvr7z520rdAXWt7Sb5I5VBCK2tIroxBUADwugollRXgkWUYz+QMxeHASTD7TRwFgBSSTTwBkPmARwlUOhjcNQSe8EqTMsGJFgieT+KDQA4UPhkPPywZlyXdwwn0sE9GDyC3IgY80chpMhvjASonk02JkrkZV9mUDenFCX1NSPkDcJ/0VUoFBmd4yqC8AarSZvHAeeykv0ARCILEeQAjkzKtjMtKsj17kFNWdI38ggNfI0+zmqC0nyiLacaVTcnViiAr08c8xgE+QMHTyMNOu4AxL1v4dE6A0Z8v3WeuUol9bW8GE0EEVFI82GVo4LLB2s1K5c5uO17DuIRQFoAHUCBeOQVQDqQoBwEKTsYRsoSMwwAMrMxSztzuU1I4hHNdE4GyGqNS3K6/X65VwjlRmTMuQwgAvAgoZRVAJqcIZWg6AZGxOAoYBAVZOFjGc17ZAWBB57tAk5E4BlcBfvYgq0BSUoBOKeUE9IH+zgM20DejKnn0oDPb0kNG8pSB88njmvtlTQ5nZxnTWPTgB4mAzgDmPADo75ySaQ4+lcX0NX/LHsDKgIKS7vzGV+5hL2OQRT8BWSAaZ1/bexW/wHf8ZrWoMaGyaS9J6rdS8gsQIlbmIBgA4k76cS7Hcb4opZDVWnmPaLCalD0oIiV7e5ThZCbnZTzKeWXGmCIegGQv15QDmYODRRWwcqZ7GI+sAI1IA7rM0Miz5QHonh4ABnmMY2HhXq8+W7U6D6D4ovmUOXq1VJmfXuYkk3sY3sLFM1Vg94sjPo0lIAQLkMj6spLGqTI3RwKYFaTMxV7sCnCys3nY2qpcBpOVjEEvNgYwJZJNySqb6cdHAE1mcpifngVS+ZT53e8au7GNrCrIAUtAALW5jLGvrQKsyOQITjWYX823HYFziQxAEuWt/YTqXwukEF7mT2I2QjkCJ+NUAtrl52TgU6qUQ2P72XkHw/q9Q1ytvAd3YyxzKh/IPRlsCpeLUBzAOZksIlz20hjYoZ/AoZ+o5EickqOUWNnQPKKfbiXlMpfyyCacwybKFSfjmEqNTATYxiazzOG81aFMaDzAkEGVTWDx0h+5m+04mOwymntlP3bU2ELm5B+BbiOZPQSZ7KWKuCb7SAZAJiBUBf3oWCABrLH1BSBgQhFkKwHJV/QkO1lqM3NVnrW2CjBps7WXgAg8BwCA53QikrDlM4yJMMt4yowVoUUBhxOUAWUGJZBjgYnDKa3s4HPGYBRZjROVBaRaOcGzZCDbIzKBJjsow3gcICDcyiADMrAtD1HHwbIe4Grk6aEvcDEgnqaskYm+BbHsRD42ka1lEfdwsLldlzUEEr2VULYiA3mAjp04lS5KHsDIwmQyt6xNH7a0ua0Ey3SytnN0l9GAAACc53Ck3+rUeBpAshUbO89/dOITIJLB6ER3AWjxow9Qk9E1WROtoIc5BQBfyO7AKJDY6AZlMOg0AGAAjeglPGMBgJ1wApebiHyPW/AqnEY20YdRZZm+T0Zx+1neypD9AMB9gOIa4+JjeBajMKQ++nKIPS9KiWBZjVNEE67GGACqPye6zmBAQRY6cZZPY/Q7PcnPEfgJZwoiTlMSyW8euthAVnaMC2A2l2UMe2UynminJ3JvfAFGZk6kj5UjQOJ1gsynvjItoBlDVpMlAMCKVTkjj3llXgATzLI7u9DbeaABVFkWKOhMBuBXUo0JGHTWBADfsbtqw5/6yVJkZGNgkiFlOwBjNzSA3NenrQKMstIkA1qhcQLDey8dAEQSxWU3q0UAZEClBXdjKIIjvqL/yJEjERjnsKLs6g+wlBNGYEQLBuWBcfE0jpUtZAZZiNPNy4mcYozuhTGglG9MoGVIm6CCgiwAB0S4TiNPRMoEsquMARAyoXnMy2F4kTJpHsEjg1p9cZDy7BoHCRzOUTIFo+yEq/k0j+zFXsAgq7IRXYzP1sBppQ4cwGP83W0I4DCvckcuDeiswoGLj9hFVsWdAFXFcY+AlWHZQQM8yYDPVCpyNjuaW7ZmA3MCHjzwCXmdY+vr01YBpmzZIMWXGIdhZTIg6yrEhIADQBDPaP46DQASihFsogIpA7gOKJxBEaDE10QcI3mXTDRSAkBwEiBRSq3M8BjOZAB8kFPcp5ziIDKMc1aw5Ocwv8uIfyHVgI/PcRx5ZDuRCciynrGB20JBJAsI8ikX5vb7j0oSmTgRkOmBBCP2yiGw0stYMhd7GUeJMZa5ZR0LGDYkL1kBU2YAbnKzp4xBp2ZG39lK0AEpR+NIZKKPefBcc7A/kJnT2OyK0gAh+5JHMMrCAokO/CrQLWjYhpzADaDGML55yVLb8cW+tgowhtMo7fVo5F0UNL2KRA4DIDUbIQdIRmUIWckTANEMoMoq3iZtiypZEeEHQlnPL1cwAMH9nQfXRYny5smB6KOccmR1130hGQoAyYtoy1LSPv7hERYjc7jtDY1DOZaMshig+B1HxlaCbcnQUR/yy5KMDCgyFCeIfmVT4Ih+sgMBPnN4Mpro70qT3GSTIWVP8+Jw9JIVyKZEynL0oKPmnC0OQGG7ggh42IZzBYLMxr7Goj/AkAlg6CCwZDwBAjCa64KK7YFUZQAyZdw519wrqM0r+FAl2U+igQM/s493/fa1VYAxmCzhFRoOVnMZx2R+URWYKATdduCVKADROBZIOFNm8cdCcC5GFyFKqjE4twCSzpUuLzB6tCLCOIgMFGJ4wAQU44oowMfZgNJ1u++Mw2hWeTKmJkNwFiN6holTAJFzjEQHxucwXMrcznGyUidL2qDlYIeFB2AAKLDIXsAuo5OPcwAVfymnkf2VcwFmHvIqyWwILAICwDlfgHC0jCH7Oiw4ZC+BzQd8YSzlVD9zABNOjLCzp3PKoL4CrSB1CERZkoxsJXCMQyYreuVRUAGqfmxINhkWFgBMMEkw+9oqwDgJX7KByugm90qNqGUsztHHSs1qERiUBWReH31lIAAQgRwIUByjrDKS8RFdUdGyK30zEqcCkL0f3AAXsQJVOmUIDlQalSWg9diKc93P8Awh+kU7WYCQ4ZVoGck9CDdAMnh/zY5BObxbD352Hv/ST/mwgFCKgApn5CS6mQcgZS3O4XzZAyA5SX/nAUamAYguEJxvhRBAuCs5zc2hsgubN7vwC1Cym3v4h1ylG0o9ELAVG5V/+RmAAImtlFi6sY8AEcQyItmN4TydnPedPK0WsikA72urABPBEGtQ5QhBBRypntG6r2Sfi6KE43ybqhSTJTgNoQcS1znb6ofxlEXOYViGpKz5/IyUW4Uqu5QFXPPjVqJbxvC2q/Ig2+BIMi1gyLzAx8iMAvAMKpvhPUDPIcCg/AGzzGouTlD+3Kd8M56sbPEBrGS0/YBIa+YS/bILok4OkY+DcmqzEZ3pgT4IxGYjmRrQjCPYzE0e4GVjGYc9AEP262JAVTg0iwEBThe+AnwlGvi6qCCrMdmabrUlYBsPiGxbtJzSC/CMD0j8Qk5BQHeLG4csaj5zu29vG9J3YBvH5e+yDzfJ33wfEOVvuo9xlnHUMsbJ33ufspb/XXXAkv94aRyRv9c+GSX/zbA+k63ynzONQvkb7OOwZaI6f+9+Imr7n0f5nLKTMcfQ+e78C17wgvwvr+Ow/P32q6++OrK5NuV4GfDkP7iaiFum/Oa+AXT+x9ox1jIGzN+hHwPnb8oPMV0mO2a8Wc0uk1Gjr+uveMUrlgma/B36W9/61suU7MhCzgmc/KdQ4/D8R10DhNwzEb6cddZZ+Rv1kw3yv9a6Z8CVsdjEMYQ7Ok42XibYMv8AMv/jL7nYakCS/6TLtQFR/vMwx/Oe97xluFJ8MFww+pvbQY6hIPm7+hPQyyw+8h9XkdPx7Gc/O//hFR0m60Rnup199tlbHcw/NCB/05+tJ/jih0ko+S+gJ2DiQ7L7n3ongWRsc+5rqwDjpEF6DDcEMQ4ctOb/uWY4kzsYiuIEY8RBfv5XtUF+/lj/cIk4Y8pDHDBlLQABXEaiWA1lTvdwAgdNRsr/3DalLfdP9Od/LzOvvoBvbk4C3pe97GX5zwMYASjJM1EWwwzBzn+UYL7hjAkC93AioHKu68acKM19wzPzv7k5z/GTWfN/fguQyy67LP8phcaBQEFGjiY7fSYLBpBT+paLL744oKffZKH899BsOiU7/xua84A6C4bY23iClFwAO4uZzD38LQAyN13IPpUlNmBfPhMI/ic6IJrMlf8AQ1+BNVltmZIbf/HlZNCtnwBXAhlak/8kg96zCl+mhOf/8B5OGt2mQmQuegHfvraa3/xqvHJnmSs9WlEoj96asCKRIvVBrJVEPMQDcUt5ZUXaxZmQamld+VL29FESXB+lQ5QHMCGkmnMIsNRuXCs8O/zmxKtwOlxIOcLnlAUrXePiMsoPruK3yfENfMy2CPnwOOUK91JalQH3KWWIMA6HL9EXZ8RN8B+6Kv+ILtmUcGVQ6TImOVAAXBInJZ9yQ0arUyVLKTWWa0ow29CdbMr5ADJ9lU2UxOJBae4CQeliM/uHqMEET0qU1azNWAsY55Uw2xv0UL5wTrbTV9lVNgckKdW2LnA49jcvudAdpdz45DGW+5R+49DJVgydrD7pvK+tAswEyBwSaJfc1gDDmggX8PAZEbb0xom6UmQUTsC3rAjxnMlIefsB2ScQ0s4h/v7pZIxwpILKJ17C2fgTA1IGoUds8QMrLGDHVTjNCg/4EGHncAwrQDwQBwQUDsQdPPwGLo6ygsUlJ9ACFAQa+IDUypjDAIKO+J89H4AoIWcf9wA5vsIOwMKZZHAfecvJABJ4ABa3wbEKCjwHSedkfIl8nE9/oCAz2+GKHumQmTzAxR8AJljMgYDbQHW/lanx9QcMfSdjxU/dc8Q17emxAU5GP81KE5G3AqUbIHqLxjh4K/sJhH1tFWAEQ9KBy0Npe0BWft4D43iZABCgGFmXnWQQRu8emChFqmU/fzCY4EDQ3X0rP58MIoMAgQxmIxEQzAUkxgYgWYgDhjPFGcBoye+6LCZjiUTglJU4VlAYg8GNx2FWcxYCiLV5Gdk9sg4jWpRYwRoTSacPmYEEYBmXnEBB/gJW5jaWbGNRwj7A3e0HGct4AgQQZApEnfOBFIg1juNojpSJ2B0hd17WlZma4clslcc2ZLM6pis7A7v5zUUWtrPaBTzyAg6yL6hUCckD6PhRlhMkQNds6n592cgK06q8W0GrbZQ7sKnZY6zUXLV7ltkh8mP0kDv8ZVaR2/+ZVT9k/vLLLw8XQeanzOQ/ZjKOPsZU6/EDHAc/UM+nBIQ34RM4F46jxuNJ+BO+hnNNpOU/pMKtkN1ZSWaBYVz8ZUAXroAg+yQzuXA5/yOve5DVifRlyt1W7sko+Q+18I9xYv43X/wDP5msG1nGgfmPsCqL+XAvvJSul1xySeyERE9Ahucg/OQ1jwO3xGnY0HgWSnQy/1CJzDOAC8cyvgWMxdWs5PMfjemHk03ZzHHOOeeEbJuHLEi8/5yMjhZD/pMr+pkXadcfV8ODJ9BiN/bGY5F13GsCLefxbGOz2WMf+9j8R1l0GVBGpqFP4cLHaqsAq1EmGkOsGQQxRDQRTpMxAlBwxqTeENdJ+wGPlchkuvxXzK5rSOJ5550XgAApwoqMA4ADSZ/IyvXJEgEnJxuDYY2HWDK4VaD+CCpFGWTSeAxlXMQZsMnHQBPNIb3IM8LPiA4EGuAAguM52uJD4FiFGpOhOYWj6GJOZHoyUFabVm6TdbMSHT4WG9HvggsuyPjs2GD1v5YBEnkA0vnnPve5IdgWF8NxExgA4H7BWqJuXmORzX9JzdF8cq973SuAE+BkmsyehZXx6ch2w5UDDgAWQBZDiLzAADo2lxyMDcgCAbgmowXokym3iwDzASZZjtVWS+TcnDcMcC2pG9GzJ+bxkOeNSgz+IxUjwEqidK5E2qNBdpUgXE46V9K8sGfRgKzak/LoSG03l9LlTxPgJ8iksqc8S+/4hUdVON0YLOOaQ1kYHcLnjKU0IedKo3I1Do0OiCn5lUq/pIL7aEoJrqisWoQg4soZeZQnfA4HsY/kRUjlVHlQKpR185ofkVY2cTxPMHBOJNpiRhmivzHNpySxCZ6FiyrzxlIi6Y1H4XcWRvidOfHbviiJE6ICKApbsxNbmJN9cDxlS/nCC41PZmW0c5cPKrHm0Dxyc5/ySU4+V9It6ozl/r5NQTdj0GnAm/vX2irAvKnKWIyPYzC8h9GIvAnxGOTQL4VwPt4EgB77MEiJsHsJS3ngYiAAQKLxCYQY/wFkqzQOQdoBGLmnkPsZlOJ4BYPiFvgd7mB+IGI0JBgRZ1hE332cxyAWGuZkZMZGeK0AyWgRASj64TEeZVl8ADGeJxA08rpPMJENT8VnSrgRexwJZ8TlyMER7iMjPoXb4Yb6CSyBAagAhgMJDDv/+BKQsIXFgnGAVcAZH4cDDEFlXESd7DgTG5DPPQLFdeAxvsQApGRlI/YAVKC3+AA8gWVuoMPfEP6pBrG/wzXBTod9bfUqp1OSUFZvMpJXdax6CGcrAMH1dqloQ1YJ6ZmkiJelKCtC7IpziIg1licAQCqyrDI9u0SkOVMWMY55KGbH3ZuzDMEArvWdd8YwLjkoa2wgAUwGlVmR4AIPcedwzbiCRz9GtEoGWkBhTFsDU74SDDImR7kX6QUwwLCaswCSGf2M2OunP+fLKgi9T44QhDK0ICKrYJPZAUxWZTcVga7ksjAgG9ItewEX0NBdtrcqtwqWfc0NFIAow1gkkMUhsJshLRTcL9sCmAwkQGznCFjy8gnZyCiRAKgxYEFAyaZsISgEzt42nQ5sdsQf+MAHhjyq76NY+AcyPlkh5BzBxTdKZnEX9V4/G61PfepTs9GIk9lR392kVf8HANmYRcrHINltdx7XMBbC6ToegjvgBeRw4GxTcpcphbl/lA63wnPGmOEo+IKnC3hPST3Z8KLJyOFy5n36058eTuLew9c9tSAzHXENPAaXMy/OgkBb5OBeiDX7TGCFx+AsU0oyn3kRaz+zC11wxMnA0Q//GoeF65hrVqqZw3340gRhdvDNj/8Zg23oXl3IZbPbUwz60NtCilyu41RTTbYkfkp/9LRAwmdxzKuuuir6G/fCCy8Mr8P7cEHkHkdlY/y4m8XFg/n3tVWAUYjhgKHKIPWIL6dyOAdO5IfgM5g++iPlVpxIK8EQf4ayAnMN2Z+SmR1iRplSklWe8RkdiIFvslVWaJwNTIzlOoM/5znPyX9Z3Ptn+RySbX6PXjhtomy55z3vGQLuPGNYNNhtJz8gDXfbggeggYYz6AZc9DKfg+ycjqQDxmSBjGvH3eKBvggwIHA08ALyZID0ZbfJIlm8cCY9kXLA9NjGOfNM1kzgkkXAmYNt+QE4yKGfn4HAqpwd3GMlbX7XjA/47A/4goOu5DEvPQDbvPQ/cuRI/gtsAe0Jg3k8sRBQAGeeJhvj+yTPvrZaIu2JSIkjeEqRDTZlxCvMuIk67r9WUTrVZOlc6VQu7YvZc1IapHi76i2byDPijfAjy8qJ9+zxLtelXHstuBPOMjJmUYGzuG5M5QA/VG7wDXIpFUrhZKCUTCle2lcWK5/ypqQr7+OElGl8UekeY2ZDUxlTSjyRUJo0fd1LZrwIoTc2WjAGjz4Iv3P+JNUYPzo4x37mVqoHFCnfDmMqPfifEmsuZUe5JAvb66dEjSPDf8aZKbWusZMSrpzSh+6ecuB35pzAyJ6ba5NxsklrL9M4+DDboQToBl/rowwqkfa4+BXXoweuzY9sqa8xyM/G5trXVgHmZkKqxwg4HoSbcAZFbJwi/kgxhRnTikxf/M3E6jWDq/t2kzkP3+IQCtqktWigOCNrJd4cYi6K2kBkOOBCQBFwnxxgDjwJdzE/YJIFmfW/fwA2WXAaG7+4Hm7oHqQfn2Aw99JVs0AxLqdxKC5IdkE20Z5NRySaw9kFV52MFy7DOfiNVSs+BIzmpw974pFsxkH4Kc7nHpzJOcEDtEBONnq5HwcjpzGAi38ms4VbCXhA5BdzCkrzF/g4n1W1RRe7s7F5LVzoYkxAtZoFZjJboOCpdDM3fsxH5i2PFTCOfW0VYJ5DAYpde4doIySSLeN4BwxoTEAwLxFazSHdHI9UWylSmkAiyeOdScOJCCTYdSs0gjMqxe3gAwKlONmigaE5mjE5WaZhUCs/91vRiDRZzVIaGMlJBlmPI8wPfLKmBYSMCUic6h6PvVwDTIEjO5mTc2UtclvFkoVTXJetZQOZRPaSTQHQWDITJwG4jIZQAyoybwwZg76ChvOmXKcCAF3P6TelMTLob5VtYeKTTgKFzABSEMkwdAIkdgIkespWACpQVCS+k/XNQS4VR3UBdosEIBV0cCAoZDDgcl5G5lN6kW9vmxsObDZA1V4cCBm0041rIYkjaIgePoPA2mAdkKTvOC+7vN5CGEVTs6fUhaPYzMQH1HecSf1Wy8egeZXFHDb9BhTLZL7siuvjOgKMu+BWrvuOzJPBpqrdf/faLLXrbW734Ww4H6I6jgpPwgfHAeFs5MR/8A6cEE/Bb/AX9xofP8TnbNS6jveYc1ZZ2WjFy2y8sokNSTLicRYtA85wHrLhkjatEXCcTL/JkhkfDzIuW+NkyPZk3XBANjKuzVP2m7KecS3EhjqE19HPuGSYrJXNZYswXNKTATrxAxub1+JjMlTs5BWlAVDIvQUGm1go8KW+fDFADufS8EGHn9loX1vNYCISyqVRr0dDuIicCYNe0SYacBjZSwZyXfmSeWQRqVwps1knBYtqpcnLgUqCyJSSRSXOI0MpCZbgMpfMJkOKPH8SynaHrQFl1X6baJOZvPWhBIlqG644oPuUWHLaBPZqr9LkFWyRK5MocXTAK0W9Umybg0wynwymBMpSMoMMpdyXY9maGBtmQ1h5lOmUOHrT3/6Upb8MIdJFvi0C9pOlyOhnR20hA5JLyaW/eWUOpUrm0Rdfk7XtAdoA1U/2cr+xyaUK6MNOspSmr+zHnvSQlXyXpRwogb7mwMX4yzNQHFbFIJs52Jns7GO+fW0vBwMsv5UDbAxFWQBQGryGMxEaUuo8I/sVfKlY+fBw2Os8k2myu0xwZN2TACXUPQTlQA+9GZDwXs9R+iwiyMAAQMFgFO/DdXxCCb/iiv/+j7cQUpu+Fg2U5mSlg/xKEQdyuJKN39ADKIEPEO35IP2cpXEGvkZXBF8JojOOo9QCJRCwQV8/QhXIQ2YboMoe4LqfTMbgdIBjH0DlQM5TZvVzTh8HGdnANZuoeCQ7kpXMQIBusBXZAUR/PnGNjZV7tsALkX7fbTbTA0CUWAHuO9uyEbAh/OxnX5IcfCt47bUVWHQDun1tFWAGkJEIwyEGQiaBof/5KAJpdYeIy1KyHUfiYYBTzqOmewQiQ+A4mjcRLAis+EQiUAIggzCizMBIHu1QluEQa5uLMpEMwsk+AQ/AcS4OIwMnesUbD5FdBcmhQ4eiC90Ah5x4lWxm8xc3ayZxv41a/EzGIL/MJ5MDnut08TsF7qcnoNML2CxcZDF2w20ARz+yuhdHoqM+ACbTyoAaIPaVHNyLPAAPuM6zD45qHJlQZjQ2vfSlL3AAGHsIBICWvZxTRQSo/nicQJVhp3xGV6tYTyWcQ/jNQW+repyOLwD1BmUwhjYARQjLUUi6cmT3GaoRae/Gcy5jM4J+QIiMMxpQcCxHiGipVSk0FoAxqhRsCawsMgjFlFQrTmWRLDKC+YAYYT58+HAMQ0El2YKBoxibUxlIaRPhAkVZtSTnNM5FYGU29ziPuPvOQe4Hatc1CwlzKMdk4iyOEAw+GVtfc8r0Mow5feccAKOT7MjZ7ElvsnC0bAU8wKk107nOXkDQcirztPTLbGzjZ/4AYv2cBwK2aFmWlWQwWc4CS9ajKzCxh/4C11hWoGQRjOYDWJnLuMaDi12Q7Wt7S6QSxkHSs/KAX4ka/Akg/KwkmZQCgOd5JR7C8Qwtu+FpnOdenAy4lC6G5gj3yF7mFLHSOXAAKoe0LMqmjDREO0BmTNFoDsahbMHlUY+yy8kCAEA4gCNlXwDCMXAnnK8Gd7+shR64LkDoyMn20GRVDgM6NjCm0qaEd+tE0NG3+rhXPwADHOAAOgCS7WQV5UZ2cE6W6haJJqDYSpaSvTT309/9uLK5yA8EPv0MfIAH3IBEH76yKgQkP+N1gAJI9AIuFcX8gtrYcNDs6WdJh5zmocu+thd+HIX/OCiPfNo78suW9sFMAjRKp01IfIviFgK+Aw1iXEPZxgAmWYCxjWVshJPQDMJJfvtaeVI2AcNemsxFcaC2lKeYjGfLBIgYgFGUL1lPRsHLZFzZiazuwbtkPzwFYIHB/YzsfkABWEbFJ80P5LYe7JPJSK7Twz2i2/YIEHCQjAa0xtI43Lzm51x6cjhbaoBNTmABIk5jPwBgN/crv4AKtIDgHH01NnOQpWMXYM75BCRyG1OFIJvzAgOg3K8Umrfn9LW9QW5zuSbb+m4s8roPwPe1vRmMYQkj6jzRlxWUIkSQMiaSjbzKIiswIO4BgF7HASKGEfUyEL4l1YoEjjUWXuM+JQMwjCWDKLn6AJA9IeN7IgBcDAy8ZDIHB4lUnErp42zGAFQEnOM5D0e66KKLYkDGUzYbADKMjEl2fXEjD/dlJCtNfBLo6IHPmU9wAZ7MzeAWJ8DHyRzjkJmMp7EnXXdBB9xs7B7ja+Q1vuv6ktc4ACaDAJD+mkrBF3TgM+fpAlwtm+7v04Fu/GqSAbv7WTDxM5oD0O7lA9lXuSQ7WzUYyWbsJo+1tnqVEozLaN4YODQ8SjnCoygtu/mFD8t/O76cDFScoqRI54QtMHxSkmP1sTgAVJGiJAKvzCIbWj5b7XW+5z//+QGnefRHuPExqZ5xOUtZRuqRd6Cz6ED6OUsfoJP9rPQA1upI6SW3CLeS8gRBCQZOq0OZqOBSOmVaiwFZSgbSl/4WCnRRTo2tcUIzULPNLsCawZp92JvDNM4tWJw3t+9KKZC45r4CsBnLp3Ma4OljTECSaenKZubT6A1AZKovBI0sRnby8qHq5ZrEQG73s6m5JJB9bRVgBJOOGY2zZAITIuicocztPtNS7uzu410ERtIRfTvzsgrlAA9QjccRhLMKBB5OBC5RUkIu/QKOFSngiB7vQclqJaQM4pqnDUi/eexlWVQAmsxi9aTkyn4yAHKOXyDTsrCnFMBJZoEBRGQEyiNHjoTLWWHKuDgjO4h8QaOky3Y4mT7G43QOL0g4xXeyAQ8gkEtzvqBoNmh2cNSJvjdb+RQ4mrFlN00fzZjG0s854JIdzc2mrukD+LIrIAoqn4IVoM3rfuBkY+BmO+ebwchF131tFWCEIBxjdiUh1Vr5KWOiXTR5FIIQ41yMjzTar1Fq7J0AEOE5TR9ZBTA4gnPsleFmxucgzw8BhDIyG45m9eYeWUf2A05KMq4xZD/yMJBHQMClD0cCgkUBoAAckOtjk5aBrQhdIyejy4x+W915WyRAp6zgYkBPZzpaJAgM5Q0Y8TzGJo8gbLljQ2AyNvlq14KhjT4AoHEc2Qu4lkPn3Gcc5QwAzMOWHO44ujnnHp9k2D2M12AAIDKQFWDdA8x0bXnt80zzsn2z2b62CjCDc4DJTIJrKSnKVTmKlaCNRWSZkAAo2yiVMoZIwLFwG3+BBoBkN/28MWuXWal1r70yY9kwFGV4DUBytHuUaatRpLjyeYLgqQBwUdQc9smke3IrYRYjMhunkBPwgYuRcDL320+jK33MCSAApfQBOsDjVuQwr1LrPs4htyxvFW2VaWWJG5q7Jc4nh/W7Zv42+pOPk31vSdSn4HDdd+ADPAHnk5ObNcnmnP4Fj+/AQXb3dqWqGZ/d9GMv5wtqjSzGdh/ZgMt1fd3bkr+vrQJMM6iyYhVnNSZdGpSzEfJyGIDDn5wHEjv3gCX7yGKcoH4T1CrPYx/lU+q1OkTYZYvugdnINZ+NXBlC1lSCgZpCDKIkAr0sJzO5X4azd2NcGcZKzwJDKVTebEeIeIbzZoiyiGMxlicIwC0DCYgS62ZEfRjbatnYdJHZgNKcMqBy7rxsDLAFk/k4T3ZoZmBbjTz0ARgkXsOLzKVxqHIICMZ2GM8YwM8eACkJmIOc7jGP+fUVlDIemWR04NMAD+0wv+0oY+tHDvcDIzllVjRCpsaLvcLumnHouq+tAqxCyCB2cIGGA63sGFxpBC7ZQzTjY0oZIx4aniXiOUdaFX0EFPkezcgoDIgLeZdLxpNVrDBlGKUH71HmAMeqjdKMh3QaAzhsW+BiVnbGsChhbKtJv9QrQyG1Fgzm0pdj7ErjkLYyGFDZdb8Aks2AD7BxPdlL5DIkXfFJFMBCxDYJ/ikIZWI24uQ61ycHc7jP2pTDzOs8eQEZwFAR/ZQkXEgDrJ7XrwBznlzApy+7FLyuVQ5zCG6+AmZAAijXAMw1sgKebKh62B7SByfGvS12utcHCzivjG2OlvW1tgowNzuQXvzCYx7gUgIobBLcpa/zyDZAh+hb5SkTMgeF+iqPzIBwyzi4DiD2lRpbE7iUEmuZzIGuG4szOMfeFfDJaMYBQPJYFMhuHMzZfYQEcOQGME8LOMI8sq0sBLC4IZCLbsBUmvWzmKCvcis7ABBQKn3mNa4VtkxngcJBQELOXVBxeMtIAeZnwNBHtuV49wKMe0qs9Scje/tUKQBS089q1j3OyeSAwuHm9N24muBkY6Air20H12RANpIU2NOcfraR7rrFHLsKPvZABfBQGRuIHeTe2wZEB7YRJq9kzFJ2+4dKJi3mNRfv6U+qzOsnUzLzOq1XhV/4whfm3jFM3vH2OojfMxxALWPUvK7jFd3JPtvXsSda86qOV6/HiNvfu/RKtHEmavPazQA1f4xkwJaxzDkOj0wDjsw3WTSvUY/z8nuVU77ymrVxyD8lLK8Ej8PyWszws4zr9Ravr4wxc+9d7nKX/DWaMXzGnUDK70WO8/K6zNCDyD9AWB7zmMfkPq9He+VFH3aZLJhXZwa0+aMtA6bYjTzsMtk9rw9NGd/+LsFUgMw/TsvvMdKbfuYf/prfb3jSk560fV15gjyvVY/D8xo4HZ0fyhE52MgrT2w4lCO/20pv8k9A5PcmpqpEjgFgXtEaAOb3KybjxR/u89oQueHAfZMtt+/803FfWwWYxogGIjRlAeP2t7/99j0mSgDapM70m7R63Z1LnD2lLf0IO/wq72kNgd4Kx1CT1fI+FeAA4tT5ZbJPDG48fYB8slnmZXyGntVdlDNOjTLZJjLd9ra3zbtYDOt+DfiHM8ZoE/15X4qhhsjnfTbgB4wppXl/q3oDyGTAjCsep4THaWSbbBj9ONhfxfHelIATAIJGAHHalJjMyZmA65dOhp+m35Tg/DUibTJ0gGrM4YSRjYyT0fMe12Si/CIOuQQVpw/vDUCGiuSdMnIPh80v9k6pi8/0G1qy/R0H75ABNdtMyc/99KfbUJPIrg/5+GWyV35ZF9gd7M4/koPg3NdWASZ6HRzI4TKDKCI0Rc8888wYf1JzFANAhhuSH0U4ewhkokh2mHQb9Isyhtd/SlAMOjwgL/vNCi6/0eyaPgw8vCfZgwEcnC1yhxOkj/6cJToZQ98px8m0DMGIj3vc4yI7eWQIL/gxpHE4DEAEwXDLvEjYYCm4RPeU+9wnmgH3JS95SX7xA3A4V8YFcuCQrdwLBJwl0JwbrhqdZI4p03GgrMdmHAZIxjSfP1nA7uYij+AA8lnspC87+gQKNqSDMQHY3DIkX3k5kY8E6eWXXx4bscNFF12UFw0FvEyucrCh37ACHHMDvzFkfBXBL4oYbxZOATl88MG+douL/cfbK02NxRMQbhxqHBY+huxbxttTUsedR6jV7FEu5BlH8NS+Kw9kH5dQ7+0tWSXa8kAe7dar87gSUq6u4254Et6DH+AaeJ3xrPbwDHMi3cZBOj0dsLCwusX/EFVk32rTlgPuhFeZayIx95EZJzF2Fy9jvMzpPqtMKyucC98zrpWpR0R0pafVs0dkdCEzexgLn7FbbjFiYWBBYOWJRON8OOyAJ7axh4hnDWhinwmycFUbzxMkeQ7KJhMgeYRjDL4ZH2YOiyg6kd9q3EIBKfc52S+LqAFoeBz5LVoQfDyOTjgr7kcHclhY8S2bTdCEh/atC34lm7kdfLHWVgE2mWtLVIHCQMgfsmfXGml2jvEszznL6tBKUD875Yg8Es/QVpKcTBF7ZABry4NBgJWD3VfnelvCAawMahWIkDOWeT02Qq5tezCi+eyruW51ZKEAALYVrLBsm5DHdgdjWREan3OAwzZG9/PMb5Vq7skyIfP21ziJA4ALMIHDoy+g5QirLk4FEgsPjgMkCwBjCh57gYiz81azZLdKs6gRWIIQSNkKMbeK08hMJyBiN7KyA+cDI3sAgC0hIAZyoAQaQELM+cF3YLcoI4OfySSZWCTZA3RtMl22N4xn9U0uCz7B4JztDfMD/z6A6XRgk4KVGKlQmVEqpUOfarq06z1x5HwET4nBoSbDhe8ghL1fildaEOKJ1KT629zmNimdSo2SqCRJ4/opS7iCMaVmpUetN7e++Ned73zn8B3lVSpHkMmHN/qOg1HPOMq78jCrpMhNZiVPuVRSja0UKWkWAmeffXZKGkJ8/vnnh5R37lkxp+SZG3fEn1AEeg7wwjXde/XVV2eB8KpXvSqcaJyQv/iDk+mrHE7ARH7zzSo18rmGsBt/gJ/zdEIFlD3ljcx8oESSCb/CHZVcpXUCI3/lkH2VW5QG53SPEmqxYeGhLCq96AvbW0Th2KgIu1mQoSiozwRPdGGjUie4OFZbBZibAYPTOJ8yFDU4Uo+MW1EhiOo/UugXXglg8gLTPX7ZYCI9/XAAfAi5tApT7xnJd0DCAzgDuKzmEGlyGAsI/AID45sXKccJOKvz4R9WVvpwNMC/6EUvig7I+bnnnhvOQg5ckfE4ln6cCXyuAd95550XnkZnAWdlSHaLDePiesY1r+uTUeO4yYL5izkIOqf65QzcbDJg/lQVPZBljnZO0PllEkBl7yuvvDL2EoTIvv7O+3uv7OL8VIHYjmxWwnhcV+uA4ppFAw4MxMCNX7Gle/DJqQyxIb+YE/hwRlyUDyyI2JGM9MWZAd18bGacY7W9HEyJVI+lzwFN9oI84vEAuzxBysRByo3wFefdY8/J3pcNVjzOGPiPNxVwDulZCbKnZvPU7j6eodwod3bilRPp2lj2yHA3JU8fG51Kl9IzuuQJAV6jL75hA9ZmqZLhnKcP9uSUG6XSi4jKnvGVGJvFSq6f/e4AzuUFvwFv9plsHitd9saUa7oo/eZmJ1yOLgOq2MLY9qAGHHkwrnQqheiFMj7OC7UwJo6JOxpnQBT7eqrAZngv7qUkK9FKmPPGUrrI6x56KYn2C8f5efGAbXAuc5BTqVR6lT1ljkz2xthHuVZGcWZ7XtXJuK7hbXikUkl+dIJt9FtrqwBzI4A5CAcoOIOdXESRkZByhsYTOJzBEGsCA4tNUfwMd0AM8ShOQVw5Rs3XD5nGFyiCs/VtCo40v81Tr8XgTPrgPQCoLwAApeeAnOXJA+6DZJPNAsITBvfjNhzkXnPgZZN9QpBxQuBgOAa2Ycw5+IXrwE13DnAvXgY8jI4H6WdsG7FkAGoH4LAXgOFPzrEdJwMF2TiRsziOvLgYkOJuvYaMA4dNVTbFn/yMiAtU9/iOhzkAjQ+9YgRsfnaezQWtw3xkAFxyWyjhpIDnPuPhv0DFzoDs0Z5FhPsKMLqvtetF8kUEB4hyBhAZSDmwyGAmFh0MDAzIMXAhtq4Bi9UdpzAwhWRDfa0SvRbD4JSSkUSPVQoj21kHQAsIzQIDeDzCoZjMYiXpEZMoYxBzORgFKMjifsTXfZ6tIrai10pURjYPwACtwAE+reAUXALIQsF1GYWjBQbdGZwjZRdjcro5AHJKXEDnmvvIJbsJMtkNkASx4KQ7wDqA16JIAOkPZO6xmLCYog8AcziAsRmHy/Dee0PmzQ/QbGUOWVEzPoAKIlVHxSEjks+PxnOP1aQEYm5z8T87qTywIUD3ZTDGObANwMJrfKrl/pgHsmyvZbJIrvVQuyfFZtMUhxpQhSAP+MIbkF0cAu9AqPEHHGOcEhI6K6L8mW913cLAJ7KP4yCc+BaeMCUxBF/tx20m++WXURFS/XArXALvw2dsJiLkOBOia/GAF5GFTLjRBEkWA+S1D4cc41X0QmzxNOMj7zZ7cTb628CcyN7+IRQ80z6fnW/8zT7gBEZkJYuFzwRX/rylfTl2xd3GmVlIsAXbWaDgpK4h3zjUBHoItzHMgcdNdsk9OCU9jWcu9uMHm9H4GP6En+HNuBk74l3GGzqR+fEyBN4emwUb3sVmszKPvye7ZV7cCx9kG/L5NN++tgowNxOYsQ0CHIgw5yPyJnAeuWVUqw+rQ2R2kJ0dZqsvY+irUdIKCQApaUXUVVrJsoZM68d5jGu1w6iAYz4gQYoZ0TjAZSUGvAytz5TLgHeiK/Ig7+7vHJxQmY3hEYzNV3oiyPS3cCErgwMyvZ2fchkyT1cbkUh0CT9dAJLz2aWrLosYgeSalZ5VG/txrk1aj7DMY9EioLUCGVDIKMAA3JMLYLABSj7j0Y1/HMa0yCCX+3xeeumlAYjHa+zOLhKAhRn52EzgsZsVqaBjez6wGcx+FgmTBbd2qC33tdUSiahLkSNg0uAIkUNqlR6le+Tdy3yIMd6FcNqE9Vd3lCI1XnMfAq4UIZzSPH7l/Xiltm854Ade1bEHpTSZW3r2anbf3sBJLBLsQ+Fj0j8yjlfhFcr5RGw2WJUW1702NNkn+zp0sTfmlRMLD6WZCZRG3I1+dLPfp1yQi05eqrS5iacpmeiC0jcgSVlW3pURfMv+m0/zGVMpMi7izk7KIhviNmyhbOJnyjmZcSBz4UB0Zgc8ljzGxYPsg7EFmymX7IWuKOOojRJtf035xdtQCf3MSR+cTAlFT+zdWRQpscq3fS57g0o2TsbO7lVC+ZRc+rs+AR0brbVVgA34cqizBHYMasOvOMdqDWm20WpCxNjKjKGtbhhXAy4CIJGcwmC4G1BYNVGKEvgMYAAO/kBRRBuXojBn4mxWevgUpc2lD15mkUEWm6BWigyL71ndArvrjGoVapMVH3HOdbwKv2AwnOppT3tanM355veio7GMieuRFUAECcAYh4z4Dj4CxJzBsYDC8WzHDuYFFHbBZYEHT2VfdgB63JP+ggMw2RJvNT9Q4GYApo+5BASbIekAiFMBNtuSyb10J6s5yG4Vb1wA5RvX8DN9cTpz42cCm35sIZisjv1MZo2+dFhrqwAjOIBBKOM4AAThthPPmSLNhB7RiAoElWIaYLqf4QhHIIJwhJ17mcmKTWRZHRpT5JtHH0QaEEWcVZx3tIBatHGanXvgMKcM4NfRXDeWbOA+j3eASwbhBCtWq+Fuc8hSAMSgDA1Uwzkih3sEDXAJmGZG4AQUEU53cskaVsaIOB05VSAChIDyhIKMAlEm4lCO5kSEWR+2AAzgAyI2K0BkWaSb811TBThWxtTHNaAzJ90EChCpKBYrrvMD4LKlzCfbA1Dvp58sCKSqlywr6OhFTv38DNg+2YCPybmvrQLMMtggIs1qy4Syh1UN0BEcCOxVAYtJIVykMLjG2AQAVspyCAEZTAaijFJmJWllxAH2fLy2zIHmUTJkHWWJc2QS2w/Kq9IkszGM/TngorQtEZnNalOpMJeVpNJIL4ACHAAj9/DKZEd7cYDKqQDsD7IoCZwus3o7V0YBWmMDKdDRz9aJjCZA3GMlSXZZjA3ozpHk5WgOBQqZpCCTUThXMJiTrOzsOtu4ny9sN5CXb4DfSs+9gOOaUlw/KGX6AAjZzC2LslnlEtB0AEI+AULXBQF7ks39AkUQwYX+9fHeNlnmwIYsI31Io+8+vWmAlHtcguw731UFYmx33mMMKxJEsITTKsrKCAl2zupsnBWCjGyOkCHsCCaSbbxJ2SHTUwZCZPWbkpiVlHkdo2QI8kTYdnFhpWTH3hgOcw4/y6oI2bVgmEyXVWTn8e7VLL+zWkX8EXak2RzGt5oyvhWdxy92/Onjc8CUFao/xYmAt3lcc9e73jUyIcnsxQ708yoToj0OzdsQZCAneyP+Vq7kdBjDec2ntxzue9/7RlaHhQPyzQ/szv50NbZFw1CRvDHBVvRB9L0J45o+5NfH4sQK2p+NsgJmq/rGStT7fp5U8Ke5HAPwYxL91QwmY0H4OCGZCZJFkgwCyaJDKtYHJ0POlRdZBjdQYkSc+5VHqBfRMpFMorSIJtHuQbOMJLPIbsqgjU18SlQ65515O/MiSLkRof2TTsYln0wo88ha5hONMqxopw+5ZWFpX0lSEo2BsxlPVvN0wF6PMkYnMuA3xvQLJLKnTEUnZYr+yryM47sMTBb98RrkWMl20E+mkSmUO/eZR7mSZZwnNxvb01MOZSx92NSYaAk92Nd1JVHWshNvv1E2cv/4NnyODHglW5OZ37wFIzOSQR82RvbpKSujFvih+WQx97Kfe5VlGY2u9BzQ/t84mCYFE9RgjMkAJiUoA6j5NmDxEmlVf8IrIYRxj0PaB0KvMltxUgRo8R/KMIyVpHKi5HhLwmoNgCmKixmTckoMkm3eyXhR/A53uENee8YD8TNEV6kDEH9XAx+xELCSVD6B3hxWtX20Y4Fi4UFHXI6cXtUBXuVAcOFIZKerEsix+uNEyjAQmZvz6S0w2ES5aaAoya4LEqXMeU5iV8FDH3TCdeACQlzOeWUSbxIc9FS2AKAkXXADMFsKAoAWZEDumtJrPtcBVh90gH4IPp/iojZa2dlcVqIAqy/CzwfwQG/YIKMyvNZWAQaVjAOlBvQzQRgR2vEdu9uIs0kIgBTjZQQRiZSxmy+DcJqMAViE7q69iDc2p3GqLQpGZUyPlgAQH5PpGMicFgT6uk/Gwre6uy6iRaxMqZ/7gBSYcUXcx669eRiVQwAc+DjOyhjwcEIRzvnAwg7ABrju6zteHMx5ANCsIzAcMqHxOVmGwamA3UIImIwJpADEoYAHaM7TH6jdA0Dm4A8ZTD9BzvGyiXsFiYAnB8cDDruZT192AWj8SxC4B8hseQAqbmksNi5/BCL3s4vMxtb6GJ+MrgtW+FhrezNYU59BfHcwrjLjFz0YhgOt5JQXGQDCkVcKcyQSz9kUZzCA4kwPoRmL4rYdlDeOJbTIAyx9lAMOBlYZEOFXjhgFcJBtwKYkR1oBKtXAzBGApw8yrQySm0wCBQCsgP3yLyAAD5mBhBwyDofLxpwkUhm7JYLDOQIIAIqdOI+jXZNlPC6SMazAjSs7cBpwWBgoUc4DEEBzOOeZi1OthgUc3QDEgsTiBiDIpNQJbjYnh74SAHsru+53sKFgcJBPgJiPblaJggzg+Ni9qo7MjMqQjU8kBXppZHRIJGy12gaNq22MlgM5nElD0L0fhHiOcnnNZLJT3v1yTd8pFcs4LERxBAhJHCVCPr23ZBzEUF+k0qOayTzpO4bPK8yjfK5PlKX/GC3v/psTOdZvSun2kRX5kOPhaCHi4/wsDvxywzgvslmEeHRjHgfSSnZkvm1Kb3bLvUNvlxuZthtvYUEGj1UGpHlsMlkl+ngCMKU5i4QBXogzs3YOpHzAnMWCcWs3v58wwbV9ROMeiwX6W6TQx0JiAJF5vRfPTnSzIGIjOrEPWw1Y8rjKIoV9xvHZ6feLL5OV0sfiyjt5FlfsaOFiTv70mtMEcRYjA6g8daH/ACuvKLmPHUvqzWehRLd97Wb+CdKOalCsQShUKxWQKoVK2dAvMqR7Q9hYVF5wLVGslot2ZQm/URJkHdEvTduwlDHwg1E+0YaQK58yhwWCjCOzySruIQu+5U85ypz6iXTlzE67CJcRkXgLAhlCliQ3+WVcvxonUs0ngxnD9QFEOKBMQDc/k0GmMK8M4Ge6KvNogWh2r8zhHjyIDDIIOcjgAb+5ZS1UwT4c2sAWbOOXgWULJRuvlOUtJNhMNjMf+8jg9iBxR/PQQYaXVZRTMrCF+WVLc6EK7MT2sri+xlNd6itZip+MJ5vZFMZXfdJBxqMjOxkLFloSUSaNbdbaKsAopTG0Jv1rzgMfoxlYKZKWOdmBUygJSiEASr9SOgMrBYizVSLOBYhKKiCo7/bIpH38wH4bAyDIUjQj4RQcZu+G0pQ33pHhd8osp3v0pLxyHnCRkazUBAggQ9YdgOManTitJcShFHGae3q/sRjVZzmLcTiWA8zH+OwDNN2gBEj3GFN5UuqVHgCyt0Y33JC+/hKRe5R9G9ICylzmF8QWLXgvnqTsK/EO3zXyCUxAMwdA8qEyyr72zJRDgFWeJQt9yUXfLhKUZwegCUS6GYetagO6OleMHNRWAdbGwMBVR/lkMGBB9AEMsPRjGAJRhoOBh3HwHdwNaACBoZBQmQZYGJESxgdW143NmJRgFCD0aEnmMRcuI0oZ0Lj4jrkRfv0RfuO1MQJVgdD4ZAIkxJx+MqmfnXfOd0AxVyNV851MwGUOgQNgHGO7Ae+TEZwTLFaEVo76Oswvc9NPX8GA33Cc4LRhDBjGZRsLHc9JBYOgEgj0BkYLBxmPXQSWgJZl9TMPnfBfK1+8VeBagOnrs/MCmYyGT7pHlRL8eKK+DlyP7/U3jkxGR3b1fa2tAowh3WwwjmJQ35s57B0pac5TUhQi3Qg8wxJQFFu+A9fhId4MSCgAtJ1hUQCUROBU149MNmJgJVZWQPL9tRtkudlNhAKqkgIsHCut28MiS6OLDkAiMpU+4HFwbom1csF5GqcKiBrOQV8GLEA14wIluzgEnGu+k898ZAU6TuJM8ssCFg0+XTeGDGhscrIZYPhzCWzQDO+vGckqdHOf+WRuNhVc7gUA1EGpE2wd39gA6Z05WYqdydn37tgXzaEjcBlX0lA6zS+wlVcgZhf2ML9x2ZnePlfbdDiwIZiD1uzWjtIhd2O8kOpRKGR/slDezR/0h4zqrx8CiMBOdskvZJhmBMpvQPeXD5BrYzmQRSR4HBIiO4rk3TOv6GhjkDwZcM/wl+w8j2OyYz0GCNE2H5n1rczGRnBdN55xx5D5HKNEpjFYyO4YMO+c60u3cUbex/ee24A4u+3kRLiNOQ7IL6xMQOT9du/vT6Rn154O5jF+Dz9PwISEe7fOQoF87NXmO9s6kHMEm57u9zqS3XZ93MceFjCerAzwQv4nQPL6DVld7yJIYxtPSoa6pC+fkNU8xhnQhLDznXvp510zCxyLCTa1ANCvY16ftpfkF7Htgsg6B7EiHw8QMaJSJIoCy2lkFNFEzPEOY3gwbZNTRCOlsoUsI9Xbr8K1kErnlDnPCUW9cbUxbMi+nXskGSHvM0F8T1Ywv6gTieVwzVrOG0P5stut1BrfZqI5RbxP2cynw3hkd4yTt5nLoTmvZCijPWQwc8neyhn6UOKvvzFkSdmI3ZRzmQSHoqvrDhRAJrF1g6yzGZItk3g1CT8yB/vKdjaVlTjjymb4G9vwHT18sgN5bFF4Y0R/c8pgyqDFBX9q/C/rK7mqFJ/TzWfHkwkdSv9aWwWYG11iFI0hGdkEvkuTDMExmhrPIMi7UsfJDIhHIPBdcQIW4ZXOw5PiAVHNNy4u5sDfOJ4jNIZQkpU2fEGT4q2KAIVRlRaAVzoZsM5lHCXZQkMZVz5wHw5TwqycqiN96UY+IOEQQPYz8AAWnfUDwK4y2QDAHebTxzhAoiRxlLLusMggl0MpRRHIRzY6CxZOFsiCWKkSUEocm5EZGBF2lASXNQeQKYF4q7mVPnYHGveQS5Mk6MZWyqF7+A5g2cgqns8AX6M33zhggm6+aw22+umgtgowpw2oAZbvjOo7cBlYtFuJMJZ37D3CwW1kBsQWqLo61Nd9fdSCO3nDwbiyGsOKZPeIiEaxyNdflmNwiwGZEMA4gvPND6iAJdoZXLRbxekjoskE4MbmPHowNq6nv7lkA1mB430CF77pOzndQ2+2YeRyNkArv5IRjA/IrgMy8Ih6QUcHAUVWYHMO8NiGzEDDHg73GVdml437BIHN2UGAycbAxN6Cz5MOfjAuUMliBQ4wkkMTVHwBYLK9sc1DXv6SKc3RFSR96c0v7mWL/lzAHdRWAcaQx2qcK4X7M94UIoiVia0EJJ6DGZ1zGJFhZSJgoQziisRaNruHU5odOcJzQkReiZElLOub+jV9ANBv7FxxxRXbsoP0I9bKLIC5l1FEo6wEWECknAMnsHMO0i/bMFozk8ZEAsTBLq73oFtlds08AAbU5OBcq+WWGTrKmmSRZWURgJBFAJxsAGvRwiYytJWo+4GLrmwoMBxsbJWpr2yo6SPjCXZBQhZ0QrDzDz/tljl2ZGdAA3o2cs0+nhcRAH1fK2gPajcYYBxr89B3S2p/xpKjOUMzPKN5IsUwgMUJjG1JzjhKlvk4iXMAC9eyxNZX8yjK7zFK3xxrHPcDq9JBSWDy1gU5GFEzPwAYXyYCyL7XJnORg5E1MjcryXQcJuqBAnfTON/8ZKUXQNpTUsbJBCTmM29tYG42OTQrbPtbHKYaCAa8RjYAbqDwp9ebLWUTdMHfSFMWjeeaEiewbc7KsHQ3HhvhusYXzDapvdZOHnrJin7lDocjU/V1XcABvO0KfpLd/EmEVop97YQBjLKIvEjiFI4QaSbkCPs0NgUJzfhASHkZCzdQsjgYqChrHM8aRTSDkwH47NIzMCeLLtdtZ8g6xpQFOYEBAaILDmPigzZ28UNGw9U4yGFe3EO2MwYOtKvDrmyATh7nAMx3n4DAQTISWYzr07z0V97N6z6AlRV9Ao4H8L6znTGAU1ZVrtAHgQbo7IQ+9A1fc8tMsq99QLwL0I0DDPopn+wA/IIVR2M7oDaehZQtCBmNTHShgyAENACVfSvfvnbCAEYoipqAIxiRoRgXIZcl7FADF2BJ+8oFUutwn0yAUygVeBxCiw8pn6Id6QcATmN4JN6K07jAhCvgLTiGLEGG7r0BFQMzmBItShlYFuwuu5+RYPdyJmMaQ/DIUA5zM35NVX05BuhlARnEdfc5ZEcBQxagMT+w2Ug2psABavyJTcjvnDHYS8kEMHZhR8BX6pQ5O/fKL5nYQVZG2vEvAQRAxgNiq0P2NR6eCozmNy8b46Y4rVIskOjOJ2Q3p58F0b52wgDmVoAygQiirKiV1SirtosQAKEAIACa/pTkfNFNcUZkCE6nPKUZU1ZC3IFKHw5iAGMCl4ORlBrnAYuxfcpcMg/HIauylbIjG5oDsIABCJSarvpkEmM12wEYPaszR8jQAAZcDt+VZYCVOYztO+CRTfYAMKtCegpCuncxJJC6fWJs97EfEm57BtjIx55oBVvKMLKtrINvCT58lQ/4A4BwL8B0H71Uk9qcXIDKHvgtwAtawWZ+Y9N3BSLbdsIA1sZ4XUofPnw4qGc4DmU4dV80cASlGIpBZCzvuuMvnEFB/UWdKORc0e/1GoaWgRiEQxBQBuYMhlMujONhNkcCgVWZsiearVKBktFEp8xrPLJzuOBwkMucACVLMV6PRnI/gRP42Mq4nQ+gAYWsCL1r3XZphre77kVNgAZutiGn33BiB/cCLPcAGs4FQPQ0BuCwE2CY1/0qiiDEoQSlAKaryqGvTEkeGdLCjK5srBzS1cKMjfrMUjtW9tL2AYwCB7Yx3jGPUTQ7xEMm8778RHF2yScK8q75GDK/0DmO3Pa16z/gyGs1Y/j0H96Qd92HU21f+xmQLPe///2ziz0gytiT0fLKzRgyfRwD1vyGtp16/SZj5VWVcVZ24wd8eQJAjikpGX8yQmSYbJoddvf4nMDIveOs7LpPGc9fpfGqjFdvvNtvR/0e97hH9J3MkKcPA5zsjrvXGA5j0m0ycJ4QTLnOqz4TYNkJZz9PPybT53UZ91aGAcP2t671bZtymd8u15ddBizbX5w13oA9n3ScDBWbetpReQa4eZLCHvpNQOZ9fufprI/P4cfZvWc78uq779jXjksGw3Escz3E9XxRhhF9okXUStfebfcWqiwheyg/OI9VH64gE0njiLuVKe6Bt+iLsDYCRav0rSSJPG8myFqyokjajVbLexxJOVZaZQALBBEsc8k+xkKM8bJmDmWU3MYT2fqI5DFmMqPm+wA8dnLIBOxAP1s2OI9PWVIGUzbJg6wrcTLPODT6KdGyrr0uNqIbqiCb9GH3gCR9ZTvbKv5HFNmPDWVnGV2JZdfKqC8bsg+92YhenvF6xVyWUjnIrrTa3lANUBO/2WUs+pt7X2OntXaDASYtMzalOa7kmfNxIYLbW1GGnKMgToBjqfdWMgxqjwfX4Bg8hTEBzr4XQ+BZHEQZsnEO7mGF5DEJHoH8cgqgcKhSx7BASz4lQdkAIOXVgRP6WQlnePcBe40GWC0TAOW8uZ1jOrL0syVXQAENe1gNK2s4FHnNY4HDBvijUmrOlnmB4K1c9tBwUMCx6sapOFxfpRBwcFPB5NGP4CMHGkI+wPYzTuZwD3soufyEhwpuq3pBJDgsHNAbnJW+wLoPQNoJBxiD+3QP1COSQIJoMxgeIEtQClAYVQTLLoCnrwjGS0Qd4wMMTgI0gMXpgOxguEaq5beox91EMgfIJMZEZq0kLTrIKDsBn4MMnIcvMS4zMCiQcCCZgQUoOMy89HOIaHO7z0E+QeVTsHCufhYKnAncHIx70RPIZQ7B4BUjTmYbepmf/ZBwfdmPnbp5zSb4nPltAQlgXHdKZ2TkbPPSh83ISi/6CF5Vxj3G1o8tjNtP4GozRoNpXzuhADM5cLVJ2/Z3GIbxZQeZQaZCTGUM4OB06dtGKaVlLA5SWm2oKguIfh3LoF3ZifhmEw5xzqqN42Spgk5EcqRropUBlVs/u9cYwCPjABNgAYTFgnFkXpnIdXM3iNyLVAMTmTnY+HSToZQtn+TkYPf5VDKHW0U+4wKccfw2lFLIybI6lwCEfrIUeZQ3AcGGbCNgOd/BNg66+Jl8AkMGJQv7u67JUMBunw3QZHljm9eGuUDtmLt+3df2AYwyB7Zx7PU6Rojr7vjv100QyPvc5z55FcRfyEFitXFmXvVA/P1C7URuCOUYPmR1Vi75W6YT7XllxNg+p8RsfzY+QouA+hxQZuGAiE7WyqsrU0byuswANQsDf7t+Mun2NRhyOMaBea/dAsGf8R6QhJRPwITsksuiwRhIvGuOWcKHOPvu+gRQ9Bgjh3z7eQCQX06eDLpd4JibHuQex+d3CiyGjEF/CwqvPg2w089BvwF5fsdhMn/mIdtQh/xpJ4uAXR/0kw+8cjSgzZ/PmgAOYW9ffiCPXxz2V5DIYEwLC/dqE0j5zrbu23fsazcog7lVREC8/n4WkTIJAi1FyyCiAaewjWFrQkTKCu7xGrRDyZQFlAn93S+N+0s9sot31228yhoipmVIpOM33vGXsfSVPZRWjzqMJcsoM+R0X5/VKRmi3j2IrvIquymlspEs0c3Ykn46ukfWJKP7ZDs8z/xdbJBBNsafZHSZQbYlj+u+s5NSKJvgUnQzt4WK34ZSDmVZmR5/9RqU/UVz4lu2E7wRKzOzm6xlDON6zOZ1bDLQH9+UvfGt2sHYMrZMyj4yqE/NdfrRW/bd1+iz1m4wwAjZMgBszgEWJRgcsbTTrDxwBIUowSg4CK4lPdvcYySlqK9BAyLHucd/Su8ht5ILCBpj25nG9QCYU/EwiwI8jlHpQRblDh+zOuUARsX3gIdDAQsfw0GUlK6AyeoTMOjYVn0n02x5m7KH1Cv/SjTwGwupB1gBAnDk1MgGkPgi2RyIvuvuYSMlEejYGZcDRHtcXW0a14JJP7ySLwQMu+FyNpvJRA/jdG/SAqN8i83rN/cDl2Oy0xaM+9oJA5jG0ITQCCS6CSmabPgdPnw4RJ4SiCwewXiiDwBEmMYZgMLxfmMbPzCuLQ+k1mpSlqMMJzCg1ZZ7GJ9xGY1TjM+g7udsfWUK4LIhzIHm7qYofgi4JelMIksADX3oxR4+XQM4wVDwNavSkXMBmGN3N3CB0RYFgFnokNGqkIyuCUCbybI2GY0BAMAvWKwUcVJZhc5W3Lir+/AseuvDBoKVTQSQhRNgdhXNzmxqW8b8fMIX9KMDMNGRX7v4WYHItp1QgGmUYSjA4gRGYCBP85FaZFepkZ494rAENj5lOFGmsqUhczEwg3G4aOtv13CkDCEbApZdcGMAiJWYZTwjczZ5ZBaRyxH6crII5STO7faHTEUG/Xso37ImZ/hOH2MyOv2Mw4mASk5AAzh6yojGZHRlDVH3XNbKljzMbX7AUcZtxQgyWRlA2c3CR5ZSwslgDr/GBqDuNQ85lXl7e0g7su68v58BaMaVsZRy+qEmwCZbyprAx3aesvgrQjK0xqZ0rZ7Xp+0DGIUPbDPB9Tom+kI2R4kQw3FC7kcO/TLnxRdfnP+UYAySHWYH4jsGCYmcDJcd+hEyZBNBt0uOcBrPOO4dY+eXYieqlonskO8pDfnl2nFC5tTGOOmPwE7GC4FGyKeUZEcd8SaDcS0QyOHpgl94nagOiWeWCZjMgViP8TPv7uEcmSdIsggY/hjC7L134yLonWOAlnfc/dWcAXj0dA+S7xd7J9PFJuRmR/dMoOX/YJrAjPzkmfKfv8xDX2OzzwRO3vEnd/tZENixHxDlCUbtbuzJ5vl/iiYrZiHmP6wwHz/Wf/w6YM/PR/v7oGNfu8EZTOZqBtNG8SC6XECpEekyS2s50opo27lWEmUJiwOlwN+iRzZFrUwmUv3lHRlOBhB5xvJnNPEtUSp7NKXLVvaHcBWR6rxsJcPhfDKPjNTMImOOgSM3LuVTNMsASigOZT4ZVJZhLn3I0e0M8tNNxMtmPmVVGUo2oYsxZRnlje5oABsry81otitkWLakt3FlPpkK37QFZHyZ3cuUXsuRMW3xyHz4KEriO5npQHdPV/jAfMaWndmSbSwWlErym9M5sjr4kL4rENm2fRnsuJTI3SGAjXAtKQWb8YBJqsY1bIL6mfHxEpuNeBRuBFh4k5RuP01/pYIhlAmcAR/DUczVlRzA4iXGncjKKsz+UnkceZBjXAw/Qvw5kZP14TgOLrh3gUUPevo0DpCZVxA5BA2eQ15jcygCDtjeVasN9DWvRYmFDB0B27z0BzaLGeVLw8/wSP3xuj5Cs8JlAytwfIotCmBl09goBTlQEoDHNX0KxMloGR/g6ENfgafR13k29NnEsNZOKsDqBIYhGABwBkMWXEg6xzGMCKe0LQorOeS+j1b0BxzGZHyrnz42MrZxAZEx8R3Zi7MQV2QXaDhAhsJnZDWcDA+RCfpUQRaQPUU8R8ladGAD89QJOBLj7xrcec6SLRHuBo7MaA7bDZ77tZ9x2cR3oGEPutJDhgII2UnAkU+GZlN64Z90pQd7yvqCiB2BDYAAubrSkxyyFd26wBBIxmdvOrKjKtBKVMCcMgA7VmMcv0wqw/hOQWXQW5UcSwS7zrKU8ibV+44si2SlRqpvKieb8iQTeN1HCWEcwNBHX45FepF7K0glxjaAuczPMRYQAMiIgGNcICKjsuO7cZ1nbJ+MKQMIEKWQkwHJzwWle+xZcRqQyyDul30AS5mWsSx89BdISiawyVb6Cjw79hYuwCGbkp1cAOT5K+DIWs4LlEOHDiW4jA3ErrMP/YGfTc0PZP5cKMpwPNqNDjAGUzr8hrKa73/aUAo4EmCsggALN2FATT/O9yfIRXWBJRO4z1sYHAaYsiVnWw3hMRwHHA6/fY6/MS5DiHRg5whAwDs4XPZgCuWHQ4DRPUqaVVijXH/yKLkcbw8PWIEIwGUQDQjJZQ7nAFCgyED2/vz/TvauALvlU2n1Ow0yGyAArkC0ydwMryllgk/G7lss7KNkA6V3yvBTchobj9PXKl1W0/zsrYnj0W50gAGFEsJJItGynEE43i8l2PdhNMQZOJBXzgAC5Us0agBl68MnQLhHNDIoYHGwjIJXcaS/+yXClUjR6pcduk8EAIBvHA4FcOWYnO7n4GYvBzPJdGRxMKqfAcecgAJ0OKItBZxGHyAHtJZLPEoDTqXfL2oo/QBDTnMr954L2o5hJzaQyfoePdAYkz0Bnh2Re2XRfPobE7kHIv3owxboh7nQEvY6Hu1GB5jGWZQnjNTtLVXlS0QxlozmUYboVuaURoYAAsRViQOsrtqUhG5cyh4iXbbhQK+k4CsyI0dyLMDqx/icJlMCoaxpTE41riyFnBuXA/wMRABJB7LKoIKBw2QHn36mm8xrHqXfGxAWLUxMd7riaF3BAiW5gZ989KlsshluRhd6AygA406yFICUH9HbuEonekFvsrKjDGtc95HN2A6BLOsfj3ZKAIwQHKNxvmxilcMReIoyIzoBQl/liZFFp/Jq41G04k+cZiWpDOAbohNo9VHaLBScM6bIB1xPEDgUQDgC7+EM5bCchwONJ7PoD4wyrvvIVKJPDk4Cqr7zpbTaHsB1jC9gyGf7wdgFqjIGOLgRULOFDAgw5GQL8+OPbCArkdEnEBmDTjKUcs8e+vIXoBnbmPo76OtXzxzmoKtMCbCtDDe0nRIAM40xCWM577/fU+KUNmVLdOmjZHGaKLSlwBHuEXGyFhB6GgAIjM0J+lpVyQqMZ9sBuGwR6N9mfM43pswFFDIlfqOccBjDG8O4SotM4AAuQGvWADzbGd1XAziLDk5F2AHNfTKyEi5LySbuc974AsEbuSiCYKOPvgCEHuBQwEceunm2KJuTWwku1yI/PdwPUDIxoHngLTvbqmFnoBd47mWLFdf/r9s+gJnkwDZIP27HGDQ7yqN4XhMZx2X3f4yRneMBXnaax+j5izp28id7ZKd8HJ736707bhd6HJF79Lcz7dWfKQXZwR6H539x9b+ZmUu/6jIAWCZjbV/LGSPnCYL/apkck5my8z3ZIn/D33vxdv/NT47hPfk+4M3vEAxB3/7nUJM5tq8CGcerQ7NAyU49mSbD5H9kMzY5JgPGHuTT13wDwPyOAr0HLPnPpyZotk9AjDsAzv8KPNk1TwP0p4937yfIMiY5BpDLVIt8eh2pNnPNd/Zg810f3ZBjXztpGWwECdIdphTF5sBtut2Alyk/rjlEvBWUEmMFJUK74vJbzbiMcoADyQzeU8c3cA8/i2ZZR6m1RXLkyJFsAzhnJWu/SeaU8WTALullCDLKSuTQyC1z+SQHuWUzn7KprGNuGQu3sVuuBPevGZIHp9TP6ztKp2yiTPkkFxn8/wCyuDHsgaEC559/fjIU3fVlL7/jQB+ZT/l13X6Yv5FGfzaif+Unu/vLJc1L/uPR2GStnTSAURB46iCAo6B5LJntywALw9qewDFwLatEZJuY+AuiDFwWCLiPdM+wCLUS0DJkXIc3QvEtZZTTcSukHxjwF+XHzjeHWU362Xwcq8ziYZqxyM2h+nAyeZV7gAVSgCCDUou0u8emq37ASwZjIPaAqB/ehUMBju0QqzzbDsqh8qZkK4H4k3LvPqtw/A0ns3eGe7pPyaafPkon6sFu7DwZLPLww/EEl3ZKAMw0SL4oYmQKEwx/4WCv9uAOuIfdenyLwfRBrBkdV0H6rShFIgfJCIzpO6NxNvJtZ9wutswFDBxlZeg3jhgeMGU+DrIpyvlIvj7mlgU4StYhu4Agt+wCYHiizAgEQOfT5q9+VpECROY1lrktPvAivAs/o5MFDm5GZ/0Ek+wClPrKphY4AGrxow/5gF9QsSGA430l98aW7XFKz3ALKHI1qNmITiuu/1+3fQBb/Tv5x2vyNuMBV4VpBDEoZ3NK97RErCykRHGirAUENgqRdNsInGMPSZmTETROU2qARl97bEAtqylJXk2xxOdwES+rKGEcCVDeDjWm14qUTv04iIyyL2LOSXQAflkFuGUNGYwjzSez2l6whUFvGbHPWi0KjCljARLgFZjOazIhcLMDgBvT/IKmmRhI6At4gMwe5JIYzGkMgaQZtwlDkPj5ePp3XzY8aRmMEKZiyKZq56qs8yKSATQOEJH+LyEAkLE4UJbxO3tKHGAysr7GkLH85RxOA86Wz26wAowyq4luIMRTzOnX32RDJdFYQCWjylYcKkPJJlZ1HInzABh5BI5DibPK6x8ucR+Z9fNKN65Gd/2MR1ZZuVwPmLwlQjcrSDqbS9b0jpgsLwPK+nQWLAICyAUk0MlmspgAoDN9jcPWDt/p1+N4tCaNg9pJA5hWMO0qdzTQfJcB8CyPQUQuIyk5spvsogQwFKdyDif5vUC8DEF3Dy7knXTZRQYBIn1xG86WPejoutexZQxOIof5EHPLfCUIiMllXAADBsFgfgBStjz/lKUAFCDIQiaZzLj6HTp0KE8pyGbM7qHhoHbt7aPhV4DmaYCMak9Mk8UAx+YwimBDGaAEjUyHVyqLZCInPcgCiPrtgkBQ+Vmf49FOCYC1/u8qVuLps2L45EDlzd+MBwBOUQKURm87GINjgEWmAAKl1L4VfuLxCG6j5CpdGhB6HKR8Ko/KpkwBsDifxYUSyIH2nJRlRJqzON3cshbZgENfJRBolb0+nzSvjEkPICMjHijzAAsQKtfmpAvgdIPWIgMV8LNrNl31RwPoASzd3EXw6eNTOTSn13x2AxXYfC8AfGdrOrimz/FopwTAKEb5gsu0Vbjfe43ifbWHU6R6KV9mwME4XgbyCAWw9FeGgJGDHe4DOP2VNpnEakvZ8ksSyqFxZa4CXzm84oor8gzTOSVItrTK43BObomX5ZB7QCMDfqT04UQAYVWLV5rPdgV9yKCR04oQwK2UgVtWoZ/XifAstMD4ympX1WQlhwZsqAAaIUMZy6rXOLIlAJHVd43MbFxQ9fN4tFMCYI0sgCqonKPo0cATYYzjnFLoO97BSbYT8AyRzPF2+JWI/j0KJYORPTYBQkReORH1SiXninaABBiOkJE4wtyeHijPspUyRQZZzHWyGAPYzUMP8wADsMuSsinuds455yTzAoU5AN1fyMETrV41TySAGPnvooLdye1pAGDKtsbDs2xpCA6LGqWa7VACtiETGd1fzlW9tPqTLA66Oo5H2wcwkxzYxqnH/RjHZxffMcrn3Dgpxxhg+z79ZJJc15y3Az0OzDv1E8HZUR+D5h14591vrMkAeRowZTPvs09myA68HW9PA/xvrp4gGNu4Po1dGdxvN5+c47hlynR+QXj4W96NnyyyXHDBBYsnApNdIqtdfHLTaTJK/ob/cK48Lbj3ve+dc1MGM99kvWXK2vY/tiKbXX7vyA+QIrunE8YjwwA3f9FnAmH7F3WGa22fHOhDb2M7zONeuvj0s3707OG8vvXJ8Tj2tZOWwUaxbaYSXVDvu+lHyO0hukSd635WtqwG8RkvFsoAeJOIFrVdPY1RQ5aVOOVKeVSeZCL/aZRMgSvRyyHKlSaZwL2d2yHbKHPG0Fc5IodruBbZlDYZzjO+lhv9rA5lKrvs+BXuaHHil4DZQHaVdZT/vjQoK8rEyL/yXDkHEBlDRvNEQ3Y0n/8xmE3YT1k2LkLfTEIXdiWvcXzW1nR1rvY/Hq3zHtROGsA6HqV6dOp+d/jOYRzhYBwAUgaQaiUJQUe8gcP7W0qnrQHkWPlxn116+172txB0/ZVVBF6JVVYB1QqQI83D8R7XWD0aUwnWR+kFSGBQupRbPwOb8b0Z2zdBgBJhBzDbCmRGwpU2Wwrkoh/A4m54mRUk8JhPucQh8UMgFkAAZFUrYOhuLCCiv08Hu7FTSyNbus4WDQBt9/vxavsAdtI2Wgsqx9GtoNpVXqRpjOY6h4pSXIUjNP05yt6TLQE/AwyuAhjeIpAdkHzAcSDROJOtADvo3QYwhgwoSyLOHAmgeBSHWpECE9IPnLKfTKcvog/cggDoEPMuDqwyrUg9TQBwICanBQDg06ecji5WscbCu4BLH76Qid3Tt0iahQSGT33q6N1APbo5d5APbkg7aJ62GwVgRx+7rfMSmvHael5/3x36OESszGV7wis6ngNyiFIpEwGNbOIxEyfIDJb/PkW5x1AyoM1MAFDWgNMvawCM1RyAAJBSZoEgK5FBIMhESrdspbzLKOa3oABwK07g0ce2AtCRw3n9jIe4OyeQzKe/uWy70A+oSge0lj3NZ8Gl1S5abdzjRLTOdVA7aSXy+rYVcf5Hw3eAg0M53uMW+1AcBAxA5X8fozzH6CtTyEhWeByG39gSsH9kDG8l2A7ArfQzpq0N5UkW5OiOYZtDf5zLg3p7WMo3RwMMcAKHbQXZyL6ecYwJYJztut9TsN8FqPop5Y985COTIa0ylUtgYpfra5uT3XbBfXS7yQJMA54SdEpyBL4iC+E1Xt9RgnAov2BhPwmw9FMmZSzbErKfzOAXLoBNKbao8DjJNgHwmcN95jSGcmnh4FUa2xhKJe4mEwIzgNhM7fPPkntl2ryypjJtV97+Fb3pwO7mo5dgERynertJAez6Ng6gGMcDFYfiOJrsoMzYAwME5QwBt++lrzLlMRTnAoesJSspm8bBxzxFABqrNRzMqtWKDRjtq8lExnSv/89SNlMilWV7dfgZ08pg9sL8DxxWicAjw7pfFrZalbX0BWB8TlltsNCPTK6vuOpGb/sAdtI42PFuAFZOUed0NSjqOU3JRM4BAQAEjfs4GTdTImU1WcvCABgAxFaH1R1ehIsBn2yEUyHasqIxPP4BUAuKEntzlbgDBzABNMAr5xYPFgmAb3zZcpcf7eql0c19p7I/9nGwmyzAtF3FOMXPylPPcx7A0YXjNN+t7mQPYLGvJAvpZwyPoezI++5hsz0spN912QyILA6UN0S876QBdLOqjGX1JxMpp4CPywEXkAKf8a0c9a+8ZBMcgOm7a+YVGPo7TsW2D2A32RLJ+ByqjDgo6WcA41AAAjDnAcFnnY1vUdvhvAPxdi+9bWziSf6nMSs5181hz00DLvPLgMZSwsznXmPgTppz3aez2et1aMTdPeYzjr7Gci+e1p933SJLGtf5U7Gty7XZ/BeAZcOpo9MdJAAAAABJRU5ErkJggg==;" parent="1" vertex="1">
          <mxGeometry x="397" y="70" width="56.56" height="80" as="geometry" />
        </mxCell>
        <mxCell id="oO2pOQuI8LB1V7APFztN-5" value="" style="edgeStyle=orthogonalEdgeStyle;rounded=0;orthogonalLoop=1;jettySize=auto;html=1;" parent="1" source="oO2pOQuI8LB1V7APFztN-3" target="oO2pOQuI8LB1V7APFztN-4" edge="1">
          <mxGeometry relative="1" as="geometry" />
        </mxCell>
        <mxCell id="oO2pOQuI8LB1V7APFztN-3" value="Input image" style="text;html=1;align=center;verticalAlign=middle;resizable=0;points=[];autosize=1;strokeColor=none;fillColor=none;" parent="1" vertex="1">
          <mxGeometry x="385" y="160" width="80" height="20" as="geometry" />
        </mxCell>
        <mxCell id="oO2pOQuI8LB1V7APFztN-7" value="" style="edgeStyle=orthogonalEdgeStyle;rounded=0;orthogonalLoop=1;jettySize=auto;html=1;" parent="1" source="oO2pOQuI8LB1V7APFztN-4" target="oO2pOQuI8LB1V7APFztN-6" edge="1">
          <mxGeometry relative="1" as="geometry" />
        </mxCell>
        <mxCell id="oO2pOQuI8LB1V7APFztN-4" value="Preprocessing" style="whiteSpace=wrap;html=1;fillColor=#f8cecc;strokeColor=#b85450;" parent="1" vertex="1">
          <mxGeometry x="365.28" y="210" width="120" height="60" as="geometry" />
        </mxCell>
        <mxCell id="oO2pOQuI8LB1V7APFztN-9" value="" style="edgeStyle=orthogonalEdgeStyle;rounded=0;orthogonalLoop=1;jettySize=auto;html=1;" parent="1" source="oO2pOQuI8LB1V7APFztN-6" target="oO2pOQuI8LB1V7APFztN-8" edge="1">
          <mxGeometry relative="1" as="geometry" />
        </mxCell>
        <mxCell id="oO2pOQuI8LB1V7APFztN-6" value="Segmentation" style="shape=document;whiteSpace=wrap;html=1;boundedLbl=1;dashed=0;flipH=1;fillColor=#E1D5E7;" parent="1" vertex="1">
          <mxGeometry x="69.99999999999997" y="310" width="100" height="70" as="geometry" />
        </mxCell>
        <mxCell id="oO2pOQuI8LB1V7APFztN-11" value="" style="edgeStyle=orthogonalEdgeStyle;rounded=0;orthogonalLoop=1;jettySize=auto;html=1;" parent="1" source="oO2pOQuI8LB1V7APFztN-8" target="oO2pOQuI8LB1V7APFztN-10" edge="1">
          <mxGeometry relative="1" as="geometry" />
        </mxCell>
        <mxCell id="oO2pOQuI8LB1V7APFztN-8" value="Normalization" style="shape=document;whiteSpace=wrap;html=1;boundedLbl=1;dashed=0;flipH=1;fillColor=#E1D5E7;" parent="1" vertex="1">
          <mxGeometry x="219.99999999999997" y="310" width="100" height="70" as="geometry" />
        </mxCell>
        <mxCell id="oO2pOQuI8LB1V7APFztN-13" value="" style="edgeStyle=orthogonalEdgeStyle;rounded=0;orthogonalLoop=1;jettySize=auto;html=1;" parent="1" source="oO2pOQuI8LB1V7APFztN-10" target="oO2pOQuI8LB1V7APFztN-12" edge="1">
          <mxGeometry relative="1" as="geometry" />
        </mxCell>
        <mxCell id="oO2pOQuI8LB1V7APFztN-10" value="Median Filter" style="shape=document;whiteSpace=wrap;html=1;boundedLbl=1;dashed=0;flipH=1;fillColor=#dae8fc;strokeColor=#6c8ebf;" parent="1" vertex="1">
          <mxGeometry x="375" y="310" width="100" height="70" as="geometry" />
        </mxCell>
        <mxCell id="oO2pOQuI8LB1V7APFztN-15" value="" style="edgeStyle=orthogonalEdgeStyle;rounded=0;orthogonalLoop=1;jettySize=auto;html=1;" parent="1" source="oO2pOQuI8LB1V7APFztN-12" target="oO2pOQuI8LB1V7APFztN-14" edge="1">
          <mxGeometry relative="1" as="geometry" />
        </mxCell>
        <mxCell id="oO2pOQuI8LB1V7APFztN-12" value="Binarization" style="shape=document;whiteSpace=wrap;html=1;boundedLbl=1;dashed=0;flipH=1;fillColor=#E1D5E7;" parent="1" vertex="1">
          <mxGeometry x="530" y="310" width="100" height="70" as="geometry" />
        </mxCell>
        <mxCell id="oO2pOQuI8LB1V7APFztN-17" value="" style="edgeStyle=orthogonalEdgeStyle;rounded=0;orthogonalLoop=1;jettySize=auto;html=1;" parent="1" source="oO2pOQuI8LB1V7APFztN-14" target="oO2pOQuI8LB1V7APFztN-16" edge="1">
          <mxGeometry relative="1" as="geometry">
            <Array as="points">
              <mxPoint x="730" y="400" />
              <mxPoint x="425" y="400" />
            </Array>
          </mxGeometry>
        </mxCell>
        <mxCell id="oO2pOQuI8LB1V7APFztN-14" value="Thinning" style="shape=document;whiteSpace=wrap;html=1;boundedLbl=1;dashed=0;flipH=1;fillColor=#E1D5E7;" parent="1" vertex="1">
          <mxGeometry x="680" y="310" width="100" height="70" as="geometry" />
        </mxCell>
        <mxCell id="oO2pOQuI8LB1V7APFztN-19" value="" style="edgeStyle=orthogonalEdgeStyle;rounded=0;orthogonalLoop=1;jettySize=auto;html=1;" parent="1" source="oO2pOQuI8LB1V7APFztN-16" target="oO2pOQuI8LB1V7APFztN-18" edge="1">
          <mxGeometry relative="1" as="geometry" />
        </mxCell>
        <mxCell id="oO2pOQuI8LB1V7APFztN-45" style="edgeStyle=orthogonalEdgeStyle;rounded=0;orthogonalLoop=1;jettySize=auto;html=1;exitX=0;exitY=0.5;exitDx=0;exitDy=0;entryX=0.5;entryY=0;entryDx=0;entryDy=0;" parent="1" source="oO2pOQuI8LB1V7APFztN-16" target="oO2pOQuI8LB1V7APFztN-20" edge="1">
          <mxGeometry relative="1" as="geometry" />
        </mxCell>
        <mxCell id="oO2pOQuI8LB1V7APFztN-46" style="edgeStyle=orthogonalEdgeStyle;rounded=0;orthogonalLoop=1;jettySize=auto;html=1;exitX=0.5;exitY=1;exitDx=0;exitDy=0;entryX=0.5;entryY=0;entryDx=0;entryDy=0;" parent="1" source="oO2pOQuI8LB1V7APFztN-16" target="oO2pOQuI8LB1V7APFztN-22" edge="1">
          <mxGeometry relative="1" as="geometry">
            <mxPoint x="425" y="510" as="targetPoint" />
          </mxGeometry>
        </mxCell>
        <mxCell id="oO2pOQuI8LB1V7APFztN-47" style="edgeStyle=orthogonalEdgeStyle;rounded=0;orthogonalLoop=1;jettySize=auto;html=1;exitX=1;exitY=0.5;exitDx=0;exitDy=0;entryX=0.5;entryY=0;entryDx=0;entryDy=0;" parent="1" source="oO2pOQuI8LB1V7APFztN-16" target="oO2pOQuI8LB1V7APFztN-24" edge="1">
          <mxGeometry relative="1" as="geometry" />
        </mxCell>
        <mxCell id="oO2pOQuI8LB1V7APFztN-48" style="edgeStyle=orthogonalEdgeStyle;rounded=0;orthogonalLoop=1;jettySize=auto;html=1;exitX=1;exitY=0.5;exitDx=0;exitDy=0;entryX=0.5;entryY=0;entryDx=0;entryDy=0;" parent="1" source="oO2pOQuI8LB1V7APFztN-16" target="oO2pOQuI8LB1V7APFztN-26" edge="1">
          <mxGeometry relative="1" as="geometry" />
        </mxCell>
        <mxCell id="oO2pOQuI8LB1V7APFztN-16" value="Feature Extraction" style="whiteSpace=wrap;html=1;dashed=0;fillColor=#f8cecc;strokeColor=#b85450;" parent="1" vertex="1">
          <mxGeometry x="365" y="430" width="120" height="60" as="geometry" />
        </mxCell>
        <mxCell id="oO2pOQuI8LB1V7APFztN-18" value="RTVTR" style="shape=document;whiteSpace=wrap;html=1;boundedLbl=1;dashed=0;flipH=1;fillColor=#dae8fc;strokeColor=#6c8ebf;" parent="1" vertex="1">
          <mxGeometry x="60" y="515" width="100" height="70" as="geometry" />
        </mxCell>
        <mxCell id="oO2pOQuI8LB1V7APFztN-20" value="LBP" style="shape=document;whiteSpace=wrap;html=1;boundedLbl=1;dashed=0;flipH=1;fillColor=#dae8fc;strokeColor=#6c8ebf;" parent="1" vertex="1">
          <mxGeometry x="220" y="515" width="100" height="70" as="geometry" />
        </mxCell>
        <mxCell id="oO2pOQuI8LB1V7APFztN-22" value="Entropy" style="shape=document;whiteSpace=wrap;html=1;boundedLbl=1;dashed=0;flipH=1;fillColor=#dae8fc;strokeColor=#6c8ebf;" parent="1" vertex="1">
          <mxGeometry x="375.28" y="515" width="100" height="70" as="geometry" />
        </mxCell>
        <mxCell id="oO2pOQuI8LB1V7APFztN-24" value="DCT" style="shape=document;whiteSpace=wrap;html=1;boundedLbl=1;dashed=0;flipH=1;fillColor=#dae8fc;strokeColor=#6c8ebf;" parent="1" vertex="1">
          <mxGeometry x="540" y="515" width="100" height="70" as="geometry" />
        </mxCell>
        <mxCell id="oO2pOQuI8LB1V7APFztN-26" value="Minutiae points" style="shape=document;whiteSpace=wrap;html=1;boundedLbl=1;dashed=0;flipH=1;fillColor=#dae8fc;strokeColor=#6c8ebf;" parent="1" vertex="1">
          <mxGeometry x="690" y="515" width="100" height="70" as="geometry" />
        </mxCell>
        <mxCell id="oO2pOQuI8LB1V7APFztN-31" value="" style="edgeStyle=orthogonalEdgeStyle;rounded=0;orthogonalLoop=1;jettySize=auto;html=1;entryX=0.5;entryY=0;entryDx=0;entryDy=0;" parent="1" source="oO2pOQuI8LB1V7APFztN-28" edge="1" target="oO2pOQuI8LB1V7APFztN-30">
          <mxGeometry relative="1" as="geometry">
            <mxPoint x="110" y="720" as="targetPoint" />
            <Array as="points">
              <mxPoint x="180" y="660" />
            </Array>
          </mxGeometry>
        </mxCell>
        <mxCell id="oO2pOQuI8LB1V7APFztN-41" style="edgeStyle=orthogonalEdgeStyle;rounded=0;orthogonalLoop=1;jettySize=auto;html=1;exitX=0.5;exitY=1;exitDx=0;exitDy=0;" parent="1" source="oO2pOQuI8LB1V7APFztN-28" target="oO2pOQuI8LB1V7APFztN-34" edge="1">
          <mxGeometry relative="1" as="geometry" />
        </mxCell>
        <mxCell id="oO2pOQuI8LB1V7APFztN-43" style="edgeStyle=orthogonalEdgeStyle;rounded=0;orthogonalLoop=1;jettySize=auto;html=1;exitX=1;exitY=0.5;exitDx=0;exitDy=0;entryX=0.5;entryY=0;entryDx=0;entryDy=0;" parent="1" source="oO2pOQuI8LB1V7APFztN-28" target="oO2pOQuI8LB1V7APFztN-36" edge="1">
          <mxGeometry relative="1" as="geometry" />
        </mxCell>
        <mxCell id="oO2pOQuI8LB1V7APFztN-44" style="edgeStyle=orthogonalEdgeStyle;rounded=0;orthogonalLoop=1;jettySize=auto;html=1;exitX=1;exitY=0.5;exitDx=0;exitDy=0;entryX=0.5;entryY=0;entryDx=0;entryDy=0;" parent="1" source="oO2pOQuI8LB1V7APFztN-28" target="oO2pOQuI8LB1V7APFztN-38" edge="1">
          <mxGeometry relative="1" as="geometry" />
        </mxCell>
        <mxCell id="oO2pOQuI8LB1V7APFztN-28" value="Classification" style="whiteSpace=wrap;html=1;dashed=0;fillColor=#f8cecc;strokeColor=#b85450;" parent="1" vertex="1">
          <mxGeometry x="365.28" y="630" width="120" height="60" as="geometry" />
        </mxCell>
        <mxCell id="oO2pOQuI8LB1V7APFztN-30" value="KNN" style="shape=document;whiteSpace=wrap;html=1;boundedLbl=1;dashed=0;flipH=1;fillColor=#dae8fc;strokeColor=#6c8ebf;" parent="1" vertex="1">
          <mxGeometry x="130" y="720" width="100" height="70" as="geometry" />
        </mxCell>
        <mxCell id="oO2pOQuI8LB1V7APFztN-34" value="SVM" style="shape=document;whiteSpace=wrap;html=1;boundedLbl=1;dashed=0;flipH=1;fillColor=#dae8fc;strokeColor=#6c8ebf;" parent="1" vertex="1">
          <mxGeometry x="315" y="720" width="100" height="70" as="geometry" />
        </mxCell>
        <mxCell id="oO2pOQuI8LB1V7APFztN-36" value="Random Forest" style="shape=document;whiteSpace=wrap;html=1;boundedLbl=1;dashed=0;flipH=1;fillColor=#dae8fc;strokeColor=#6c8ebf;" parent="1" vertex="1">
          <mxGeometry x="500" y="720" width="100" height="70" as="geometry" />
        </mxCell>
        <mxCell id="oO2pOQuI8LB1V7APFztN-38" value="Adaboost" style="shape=document;whiteSpace=wrap;html=1;boundedLbl=1;dashed=0;flipH=1;fillColor=#dae8fc;strokeColor=#6c8ebf;" parent="1" vertex="1">
          <mxGeometry x="660" y="720" width="100" height="70" as="geometry" />
        </mxCell>
        <mxCell id="oO2pOQuI8LB1V7APFztN-51" style="edgeStyle=orthogonalEdgeStyle;rounded=0;orthogonalLoop=1;jettySize=auto;html=1;exitX=0.1;exitY=0.5;exitDx=0;exitDy=0;exitPerimeter=0;entryX=0.5;entryY=0;entryDx=0;entryDy=0;" parent="1" source="oO2pOQuI8LB1V7APFztN-50" target="oO2pOQuI8LB1V7APFztN-28" edge="1">
          <mxGeometry relative="1" as="geometry" />
        </mxCell>
        <mxCell id="oO2pOQuI8LB1V7APFztN-50" value="" style="shape=curlyBracket;whiteSpace=wrap;html=1;rounded=1;flipH=1;rotation=90;" parent="1" vertex="1">
          <mxGeometry x="415" y="285" width="20" height="630" as="geometry" />
        </mxCell>
        <mxCell id="oO2pOQuI8LB1V7APFztN-57" value="" style="edgeStyle=orthogonalEdgeStyle;rounded=0;orthogonalLoop=1;jettySize=auto;html=1;" parent="1" source="oO2pOQuI8LB1V7APFztN-52" target="oO2pOQuI8LB1V7APFztN-56" edge="1">
          <mxGeometry relative="1" as="geometry" />
        </mxCell>
        <mxCell id="oO2pOQuI8LB1V7APFztN-52" value="" style="shape=curlyBracket;whiteSpace=wrap;html=1;rounded=1;flipH=1;rotation=90;" parent="1" vertex="1">
          <mxGeometry x="427.78" y="537.5" width="20" height="535" as="geometry" />
        </mxCell>
        <mxCell id="oO2pOQuI8LB1V7APFztN-56" value="Male/Female" style="ellipse;whiteSpace=wrap;html=1;rounded=1;fillColor=#f8cecc;strokeColor=#b85450;" parent="1" vertex="1">
          <mxGeometry x="377.78" y="850" width="120" height="60" as="geometry" />
        </mxCell>
        <mxCell id="oO2pOQuI8LB1V7APFztN-58" value="Median Filter" style="shape=document;whiteSpace=wrap;html=1;boundedLbl=1;dashed=0;flipH=1;fillColor=#dae8fc;strokeColor=#6c8ebf;" parent="1" vertex="1">
          <mxGeometry x="375.28" y="310" width="100" height="70" as="geometry" />
        </mxCell>
        <mxCell id="oO2pOQuI8LB1V7APFztN-59" value="Segmentation" style="shape=document;whiteSpace=wrap;html=1;boundedLbl=1;dashed=0;flipH=1;fillColor=#dae8fc;strokeColor=#6c8ebf;" parent="1" vertex="1">
          <mxGeometry x="70.27999999999997" y="310" width="100" height="70" as="geometry" />
        </mxCell>
        <mxCell id="oO2pOQuI8LB1V7APFztN-60" value="Normalization" style="shape=document;whiteSpace=wrap;html=1;boundedLbl=1;dashed=0;flipH=1;fillColor=#dae8fc;strokeColor=#6c8ebf;" parent="1" vertex="1">
          <mxGeometry x="220.27999999999997" y="310" width="100" height="70" as="geometry" />
        </mxCell>
        <mxCell id="oO2pOQuI8LB1V7APFztN-61" value="Binarization" style="shape=document;whiteSpace=wrap;html=1;boundedLbl=1;dashed=0;flipH=1;fillColor=#dae8fc;strokeColor=#6c8ebf;" parent="1" vertex="1">
          <mxGeometry x="530.28" y="310" width="100" height="70" as="geometry" />
        </mxCell>
        <mxCell id="oO2pOQuI8LB1V7APFztN-62" value="Thinning" style="shape=document;whiteSpace=wrap;html=1;boundedLbl=1;dashed=0;flipH=1;fillColor=#dae8fc;strokeColor=#6c8ebf;" parent="1" vertex="1">
          <mxGeometry x="680.28" y="310" width="100" height="70" as="geometry" />
        </mxCell>
      </root>
    </mxGraphModel>
  </diagram>
</mxfile>
